<?xml version="1.0" encoding="UTF-8" standalone="no"?>
<!-- Created with Inkscape (http://www.inkscape.org/) -->

<svg
   xmlns:dc="http://purl.org/dc/elements/1.1/"
   xmlns:cc="http://creativecommons.org/ns#"
   xmlns:rdf="http://www.w3.org/1999/02/22-rdf-syntax-ns#"
   xmlns:svg="http://www.w3.org/2000/svg"
   xmlns="http://www.w3.org/2000/svg"
   version="1.1"
   viewBox="0 0 100 100"
   preserveAspectRatio="xMidYMid meet"    
   width="100"
   height="100"
   id="svg2">
  <defs
     id="defs4">
    <clipPath
       id="clipPath8362">
      <path
         d="m 69,151 22,0 0,-18 -22,0 0,18 z"
         id="path8364" />
    </clipPath>
  </defs>
  <metadata
     id="metadata7">
    <rdf:RDF>
      <cc:Work
         rdf:about="">
        <dc:format>image/svg+xml</dc:format>
        <dc:type
           rdf:resource="http://purl.org/dc/dcmitype/StillImage" />
        <dc:title></dc:title>
      </cc:Work>
    </rdf:RDF>
  </metadata>
  <g
     transform="translate(0,-952.36218)"
     id="layer1">
    <path
       d="m 93.750005,1046.1122 -87.50001,0 0,-75.00003 87.50001,0 0,75.00003 z m 0,-93.75002 -87.50001,0 c -3.45,0 -6.24999,2.8 -6.24999,6.25 l 0,87.50002 c 0,3.45 2.79999,6.25 6.24999,6.25 l 87.50001,0 c 3.45,0 6.24999,-2.8 6.24999,-6.25 l 0,-87.50002 c 0,-3.45 -2.79999,-6.25 -6.24999,-6.25"
       id="path8342"
       style="fill:#434854;fill-opacity:1;fill-rule:nonzero;stroke:none" />
    <g
       transform="matrix(3.1249999,0,0,-3.1249999,12.499995,961.73718)"
       id="g8344">
      <path
         d="m 0,0 c 0,-0.553 -0.447,-1 -1,-1 -0.553,0 -1,0.447 -1,1 0,0.553 0.447,1 1,1 0.553,0 1,-0.447 1,-1"
         id="path8346"
         style="fill:#ef4d4d;fill-opacity:1;fill-rule:nonzero;stroke:none" />
    </g>
    <g
       transform="matrix(3.1249999,0,0,-3.1249999,21.874995,961.73718)"
       id="g8348">
      <path
         d="m 0,0 c 0,-0.553 -0.447,-1 -1,-1 -0.553,0 -1,0.447 -1,1 0,0.553 0.447,1 1,1 0.553,0 1,-0.447 1,-1"
         id="path8350"
         style="fill:#eaca44;fill-opacity:1;fill-rule:nonzero;stroke:none" />
    </g>
    <g
       transform="matrix(3.1249999,0,0,-3.1249999,31.250005,961.73718)"
       id="g8352">
      <path
         d="m 0,0 c 0,-0.553 -0.447,-1 -1,-1 -0.553,0 -1,0.447 -1,1 0,0.553 0.447,1 1,1 0.553,0 1,-0.447 1,-1"
         id="path8354"
         style="fill:#84bf56;fill-opacity:1;fill-rule:nonzero;stroke:none" />
    </g>
    <path
       d="m 93.750005,1046.1122 -87.50001,0 0,-75.00003 87.50001,0 0,75.00003 z"
       id="path8356"
       style="fill:#eaeaea;fill-opacity:1;fill-rule:nonzero;stroke:none" />
    <g
       transform="matrix(3.1249999,0,0,-3.1249999,-199.99999,1452.3622)"
       id="g8358">
      <g
         id="g8360" />
      <g
         id="g8366">
        <g
           clip-path="url(#clipPath8362)"
           id="g8368"
           style="opacity:0.10000598">
          <g
             transform="translate(70,141)"
             id="g8370">
            <path
               d="M 0,0 8,0 C 8.553,0 9,0.447 9,1 L 9,9 C 9,9.553 8.553,10 8,10 L 0,10 C -0.553,10 -1,9.553 -1,9 L -1,1 C -1,0.447 -0.553,0 0,0"
               id="path8372"
               style="fill:#000000;fill-opacity:1;fill-rule:nonzero;stroke:none" />
          </g>
          <g
             transform="translate(82,149)"
             id="g8374">
            <path
               d="M 0,0 8,0 C 8.553,0 9,0.447 9,1 9,1.553 8.553,2 8,2 L 0,2 C -0.553,2 -1,1.553 -1,1 -1,0.447 -0.553,0 0,0"
               id="path8376"
               style="fill:#000000;fill-opacity:1;fill-rule:nonzero;stroke:none" />
          </g>
          <g
             transform="translate(90,147)"
             id="g8378">
            <path
               d="m 0,0 -8,0 c -0.553,0 -1,-0.447 -1,-1 0,-0.553 0.447,-1 1,-1 l 8,0 c 0.553,0 1,0.447 1,1 0,0.553 -0.447,1 -1,1"
               id="path8380"
               style="fill:#000000;fill-opacity:1;fill-rule:nonzero;stroke:none" />
          </g>
          <g
             transform="translate(90,143)"
             id="g8382">
            <path
               d="m 0,0 -8,0 c -0.553,0 -1,-0.447 -1,-1 0,-0.553 0.447,-1 1,-1 l 8,0 c 0.553,0 1,0.447 1,1 0,0.553 -0.447,1 -1,1"
               id="path8384"
               style="fill:#000000;fill-opacity:1;fill-rule:nonzero;stroke:none" />
          </g>
          <g
             transform="translate(90,139)"
             id="g8386">
            <path
               d="m 0,0 -20,0 c -0.553,0 -1,-0.447 -1,-1 0,-0.553 0.447,-1 1,-1 l 20,0 c 0.553,0 1,0.447 1,1 0,0.553 -0.447,1 -1,1"
               id="path8388"
               style="fill:#000000;fill-opacity:1;fill-rule:nonzero;stroke:none" />
          </g>
          <g
             transform="translate(90,135)"
             id="g8390">
            <path
               d="m 0,0 -20,0 c -0.553,0 -1,-0.447 -1,-1 0,-0.553 0.447,-1 1,-1 l 20,0 c 0.553,0 1,0.447 1,1 0,0.553 -0.447,1 -1,1"
               id="path8392"
               style="fill:#000000;fill-opacity:1;fill-rule:nonzero;stroke:none" />
          </g>
        </g>
      </g>
    </g>
  </g>
</svg>
