<?xml version="1.0" encoding="UTF-8" standalone="no"?>
<!-- Created with Inkscape (http://www.inkscape.org/) -->

<svg
   xmlns:dc="http://purl.org/dc/elements/1.1/"
   xmlns:cc="http://creativecommons.org/ns#"
   xmlns:rdf="http://www.w3.org/1999/02/22-rdf-syntax-ns#"
   xmlns:svg="http://www.w3.org/2000/svg"
   xmlns="http://www.w3.org/2000/svg"
   version="1.1"
   viewBox="0 0 134 100"
   preserveAspectRatio="xMidYMid meet"      
   width="134"
   height="100"
   id="svg2">
  <defs
     id="defs4">
    <clipPath
       id="clipPath8898">
      <path
         d="m 391.437,461.239 17.126,0 0,-6.239 -17.126,0 0,6.239 z"
         id="path8900" />
    </clipPath>
    <clipPath
       id="clipPath8878">
      <path
         d="m 384,476 32,0 0,-12.5 -32,0 0,12.5 z"
         id="path8880" />
    </clipPath>
  </defs>
  <metadata
     id="metadata7">
    <rdf:RDF>
      <cc:Work
         rdf:about="">
        <dc:format>image/svg+xml</dc:format>
        <dc:type
           rdf:resource="http://purl.org/dc/dcmitype/StillImage" />
        <dc:title></dc:title>
      </cc:Work>
    </rdf:RDF>
  </metadata>
  <g
     transform="translate(0,-952.36218)"
     id="layer1">
    <g
       transform="matrix(4.1666639,0,0,-4.1666639,67.00001,952.36221)"
       id="g8870">
      <path
         d="m 0,0 c -14,0 -16,-12 -16,-12 0,0 2,-12 16,-12 14,0 16,12 16,12 0,0 -2,12 -16,12"
         id="path8872"
         style="fill:#eaeaea;fill-opacity:1;fill-rule:nonzero;stroke:none" />
    </g>
    <g
       transform="matrix(4.1666639,0,0,-4.1666639,-1599.6656,2935.6942)"
       id="g8874">
      <g
         id="g8876" />
      <g
         id="g8882">
        <g
           clip-path="url(#clipPath8878)"
           id="g8884"
           style="opacity:0.10000598">
          <g
             transform="translate(400,475)"
             id="g8886">
            <path
               d="M 0,0 C 12.281,0 15.327,-9.232 15.891,-11.5 15.969,-11.183 16,-11 16,-11 16,-11 14,1 0,1 c -14,0 -16,-12 -16,-12 0,0 0.031,-0.183 0.109,-0.5 C -15.327,-9.232 -12.281,0 0,0"
               id="path8888"
               style="fill:#000000;fill-opacity:1;fill-rule:nonzero;stroke:none" />
          </g>
        </g>
      </g>
    </g>
    <g
       transform="matrix(4.1666639,0,0,-4.1666639,104.49999,1002.3622)"
       id="g8890">
      <path
         d="m 0,0 c 0,4.968 -4.032,9 -9,9 -4.968,0 -9,-4.032 -9,-9 0,-4.968 4.032,-9 9,-9 4.968,0 9,4.032 9,9"
         id="path8892"
         style="fill:#469fcc;fill-opacity:1;fill-rule:nonzero;stroke:none" />
    </g>
    <g
       transform="matrix(4.1666639,0,0,-4.1666639,-1599.6656,2935.6942)"
       id="g8894">
      <g
         id="g8896" />
      <g
         id="g8902">
        <g
           clip-path="url(#clipPath8898)"
           id="g8904"
           style="opacity:0.14999402">
          <g
             transform="translate(400,458)"
             id="g8906">
            <path
               d="M 0,0 C -3.283,0 -6.274,1.229 -8.563,3.239 -7.396,-0.379 -4.004,-3 0,-3 4.004,-3 7.396,-0.379 8.563,3.239 6.274,1.229 3.283,0 0,0"
               id="path8908"
               style="fill:#000000;fill-opacity:1;fill-rule:nonzero;stroke:none" />
          </g>
        </g>
      </g>
    </g>
    <g
       transform="matrix(4.1666639,0,0,-4.1666639,87.83333,1002.3622)"
       id="g8910">
      <path
         d="m 0,0 c 0,2.76 -2.24,5 -5,5 -2.76,0 -5,-2.24 -5,-5 0,-2.76 2.24,-5 5,-5 2.76,0 5,2.24 5,5"
         id="path8912"
         style="fill:#434854;fill-opacity:1;fill-rule:nonzero;stroke:none" />
    </g>
    <g
       transform="matrix(4.1666639,0,0,-4.1666639,87.83333,989.86217)"
       id="g8914">
      <path
         d="m 0,0 c 0,1.104 -0.896,2 -2,2 -1.104,0 -2,-0.896 -2,-2 0,-1.104 0.896,-2 2,-2 1.104,0 2,0.896 2,2"
         id="path8916"
         style="fill:#eaeaea;fill-opacity:1;fill-rule:nonzero;stroke:none" />
    </g>
  </g>
</svg>
