<?xml version="1.0" encoding="UTF-8" standalone="no"?>
<!-- Created with Inkscape (http://www.inkscape.org/) -->

<svg
   xmlns:dc="http://purl.org/dc/elements/1.1/"
   xmlns:cc="http://creativecommons.org/ns#"
   xmlns:rdf="http://www.w3.org/1999/02/22-rdf-syntax-ns#"
   xmlns:svg="http://www.w3.org/2000/svg"
   xmlns="http://www.w3.org/2000/svg"
   version="1.1"
   viewBox="0 0 100 100"
   preserveAspectRatio="xMidYMid meet"   
   width="100"
   height="100"
   id="svg2">
  <defs
     id="defs4">
    <clipPath
       id="clipPath13624">
      <path
         d="m 513.367,201.544 29.266,0 0,-9.544 -29.266,0 0,9.544 z"
         id="path13626" />
    </clipPath>
    <clipPath
       id="clipPath13656">
      <path
         d="m 577.367,201.544 29.266,0 0,-9.544 -29.266,0 0,9.544 z"
         id="path13658" />
    </clipPath>
  </defs>
  <metadata
     id="metadata7">
    <rdf:RDF>
      <cc:Work
         rdf:about="">
        <dc:format>image/svg+xml</dc:format>
        <dc:type
           rdf:resource="http://purl.org/dc/dcmitype/StillImage" />
        <dc:title></dc:title>
      </cc:Work>
    </rdf:RDF>
  </metadata>
  <g
     transform="translate(0,-952.36218)"
     id="layer1">
    <g
       transform="matrix(3.125,0,0,-3.125,100,1002.3621)"
       id="g13636">
      <path
         d="m 0,0 c 0,8.837 -7.163,16 -16,16 -8.837,0 -16,-7.163 -16,-16 0,-8.837 7.163,-16 16,-16 8.837,0 16,7.163 16,16"
         id="path13638"
         style="fill:#edd87e;fill-opacity:1;fill-rule:nonzero;stroke:none" />
    </g>
    <g
       transform="matrix(3.125,0,0,-3.125,56.250007,986.73721)"
       id="g13640">
      <path
         d="m 0,0 c 0,-1.657 1.343,-3 3,-3 1.657,0 3,1.343 3,3 L 1.21,2.395 C 0.479,1.848 0,0.983 0,0"
         id="path13642"
         style="fill:#ffffff;fill-opacity:1;fill-rule:nonzero;stroke:none" />
    </g>
    <g
       transform="matrix(3.125,0,0,-3.125,39.968745,979.25441)"
       id="g13644">
      <path
         d="m 0,0 -4.79,-2.395 c 0,-1.657 1.343,-3 3,-3 1.657,0 3,1.343 3,3 C 1.21,-1.411 0.73,-0.547 0,0"
         id="path13646"
         style="fill:#ffffff;fill-opacity:1;fill-rule:nonzero;stroke:none" />
    </g>
    <g
       transform="matrix(3.125,0,0,-3.125,29.31812,1026.4069)"
       id="g13648">
      <path
         d="m 0,0 c 1.425,2.194 3.89,3.649 6.701,3.649 2.812,0 5.277,-1.455 6.701,-3.649 0,0 0.827,-1.788 1.797,-1.069 0.971,0.718 0,1.967 0,1.967 -1.761,2.849 -4.903,4.751 -8.498,4.751 -3.595,0 -6.737,-1.902 -8.498,-4.751 0,0 -1.156,-1.53 -0.002,-2.092 C -0.645,-1.757 0,0 0,0"
         id="path13650"
         style="fill:#e29460;fill-opacity:1;fill-rule:nonzero;stroke:none" />
    </g>
    <g
       transform="matrix(3.125,0,0,-3.125,-1800.0001,1652.3622)"
       id="g13652">
      <g
         id="g13654" />
      <g
         id="g13660">
        <g
           clip-path="url(#clipPath13656)"
           id="g13662"
           style="opacity:0.10000598">
          <g
             transform="translate(592,194)"
             id="g13664">
            <path
               d="M 0,0 C -6.038,0 -11.367,2.982 -14.633,7.544 -12.15,1.926 -6.538,-2 0,-2 6.538,-2 12.15,1.926 14.633,7.544 11.367,2.982 6.038,0 0,0"
               id="path13666"
               style="fill:#000000;fill-opacity:1;fill-rule:nonzero;stroke:none" />
          </g>
        </g>
      </g>
    </g>
    <g
       transform="matrix(3.125,0,0,-3.125,63.372812,980.92344)"
       id="g13668">
      <path
         d="m 0,0 c -0.748,-0.29 -1.279,-1.011 -1.279,-1.86 0,-1.105 0.895,-2 2,-2 1.104,0 2,0.895 2,2 0,0.189 -0.035,0.368 -0.084,0.542 L 0,0 z"
         id="path13670"
         style="fill:#469fcc;fill-opacity:1;fill-rule:nonzero;stroke:none" />
    </g>
    <g
       transform="matrix(3.125,0,0,-3.125,36.627183,980.92344)"
       id="g13672">
      <path
         d="m 0,0 -2.637,-1.318 c -0.049,-0.174 -0.084,-0.353 -0.084,-0.542 0,-1.105 0.896,-2 2,-2 1.105,0 2,0.895 2,2 C 1.279,-1.011 0.748,-0.29 0,0"
         id="path13674"
         style="fill:#469fcc;fill-opacity:1;fill-rule:nonzero;stroke:none" />
    </g>
  </g>
</svg>
