<?xml version="1.0" encoding="UTF-8" standalone="no"?>
<!-- Created with Inkscape (http://www.inkscape.org/) -->

<svg
   xmlns:dc="http://purl.org/dc/elements/1.1/"
   xmlns:cc="http://creativecommons.org/ns#"
   xmlns:rdf="http://www.w3.org/1999/02/22-rdf-syntax-ns#"
   xmlns:svg="http://www.w3.org/2000/svg"
   xmlns="http://www.w3.org/2000/svg"
   version="1.1"
   viewBox="0 0 100 100"
   preserveAspectRatio="xMidYMid meet"   
   width="100"
   height="100"
   id="svg2">
  <defs
     id="defs4">
    <clipPath
       id="clipPath8858">
      <path
         d="m 261.167,463.256 11.391,0 0,-2.31 -11.391,0 0,2.31 z"
         id="path8860" />
    </clipPath>
    <clipPath
       id="clipPath8838">
      <path
         d="m 259,477 26,0 0,-13.5 -26,0 0,13.5 z"
         id="path8840" />
    </clipPath>
  </defs>
  <metadata
     id="metadata7">
    <rdf:RDF>
      <cc:Work
         rdf:about="">
        <dc:format>image/svg+xml</dc:format>
        <dc:type
           rdf:resource="http://purl.org/dc/dcmitype/StillImage" />
        <dc:title></dc:title>
      </cc:Work>
    </rdf:RDF>
  </metadata>
  <g
     transform="translate(0,-952.36218)"
     id="layer1">
    <g
       transform="matrix(3.125,0,0,-3.125,71.875,1002.3622)"
       id="g8802">
      <path
         d="m 0,0 c 0,3.866 -3.134,7 -7,7 -3.866,0 -7,-3.134 -7,-7 0,-3.866 3.134,-7 7,-7 3.866,0 7,3.134 7,7"
         id="path8804"
         style="fill:#eaeaea;fill-opacity:1;fill-rule:nonzero;stroke:none" />
    </g>
    <g
       transform="matrix(3.125,0,0,-3.125,50,1042.9872)"
       id="g8806">
      <path
         d="m 0,0 c -7.18,0 -13,5.82 -13,13 0,7.18 5.82,13 13,13 C 7.18,26 13,20.18 13,13 13,5.82 7.18,0 0,0 M 0,29 C -8.837,29 -16,21.837 -16,13 -16,4.163 -8.837,-3 0,-3 8.837,-3 16,4.163 16,13 16,21.837 8.837,29 0,29"
         id="path8808"
         style="fill:#434854;fill-opacity:1;fill-rule:nonzero;stroke:none" />
    </g>
    <g
       transform="matrix(3.125,0,0,-3.125,50,961.73717)"
       id="g8810">
      <path
         d="M 0,0 C -3.59,0 -6.84,-1.455 -9.192,-3.808 L -4.95,-8.05 C -3.684,-6.783 -1.934,-6 0,-6 1.934,-6 3.684,-6.783 4.95,-8.05 l 4.242,4.242 C 6.84,-1.455 3.59,0 0,0"
         id="path8812"
         style="fill:#eaca44;fill-opacity:1;fill-rule:nonzero;stroke:none" />
    </g>
    <g
       transform="matrix(3.125,0,0,-3.125,21.27375,973.63592)"
       id="g8814">
      <path
         d="m 0,0 c -2.353,-2.353 -3.808,-5.603 -3.808,-9.192 0,-3.59 1.455,-6.84 3.808,-9.193 l 4.242,4.242 c -1.266,1.267 -2.05,3.017 -2.05,4.951 0,1.933 0.784,3.683 2.05,4.95 L 0,0 z"
         id="path8816"
         style="fill:#84bf56;fill-opacity:1;fill-rule:nonzero;stroke:none" />
    </g>
    <g
       transform="matrix(3.125,0,0,-3.125,65.46937,986.89279)"
       id="g8818">
      <path
         d="M 0,0 C 1.267,-1.267 2.05,-3.017 2.05,-4.95 2.05,-6.884 1.267,-8.634 0,-9.9 l 4.242,-4.243 c 2.353,2.353 3.808,5.603 3.808,9.193 0,3.59 -1.455,6.84 -3.808,9.192 L 0,0 z"
         id="path8820"
         style="fill:#ef4d4d;fill-opacity:1;fill-rule:nonzero;stroke:none" />
    </g>
    <g
       transform="matrix(3.125,0,0,-3.125,15.62499,1002.3622)"
       id="g8822">
      <path
         d="M 0,0 9.5,-2.816 C 9.814,-2.928 10.647,-3 11,-3 c 1.658,0 3,1.342 3,2.999 C 14,1.656 12.658,3 11,3 10.648,3 9.846,2.928 9.531,2.816 L 0,0 z"
         id="path8824"
         style="fill:#434854;fill-opacity:1;fill-rule:nonzero;stroke:none" />
    </g>
    <g
       transform="matrix(3.125,0,0,-3.125,15.62499,1002.3622)"
       id="g8826">
      <path
         d="M 0,0 9.5,-2.816 C 9.814,-2.928 10.647,-3 11,-3 c 1.658,0 3,1.342 3,2.999 C 14,1.656 12.658,3 11,3 10.648,3 9.846,2.928 9.531,2.816 L 0,0 z"
         id="path8828"
         style="fill:#434854;fill-opacity:1;fill-rule:nonzero;stroke:none" />
    </g>
    <g
       transform="matrix(3.125,0,0,-3.125,53.12499,1002.3622)"
       id="g8830">
      <path
         d="m 0,0 c 0,0.553 -0.447,1 -1,1 -0.553,0 -1,-0.447 -1,-1 0,-0.553 0.447,-1 1,-1 0.553,0 1,0.447 1,1"
         id="path8832"
         style="fill:#eaeaea;fill-opacity:1;fill-rule:nonzero;stroke:none" />
    </g>
    <g
       transform="matrix(3.125,0,0,-3.125,-800.00001,2452.3622)"
       id="g8834">
      <g
         id="g8836" />
      <g
         id="g8842">
        <g
           clip-path="url(#clipPath8838)"
           id="g8844"
           style="opacity:0.10000598">
          <g
             transform="translate(272,476)"
             id="g8846">
            <path
               d="M 0,0 C 7.011,0 12.71,-5.554 12.975,-12.5 12.981,-12.333 13,-12.169 13,-12 13,-4.82 7.18,1 0,1 c -7.18,0 -13,-5.82 -13,-13 0,-0.169 0.019,-0.333 0.025,-0.5 C -12.71,-5.554 -7.011,0 0,0"
               id="path8848"
               style="fill:#000000;fill-opacity:1;fill-rule:nonzero;stroke:none" />
          </g>
        </g>
      </g>
    </g>
    <g
       transform="matrix(3.125,0,0,-3.125,65.46937,1017.8315)"
       id="g8850">
      <path
         d="m 0,0 c -1.267,-1.267 -3.017,-2.05 -4.95,-2.05 -1.934,0 -3.684,0.783 -4.95,2.05 l -4.243,-4.242 c 2.353,-2.353 5.603,-3.808 9.193,-3.808 3.59,0 6.84,1.455 9.192,3.808 L 0,0 z"
         id="path8852"
         style="fill:#eaeaea;fill-opacity:1;fill-rule:nonzero;stroke:none" />
    </g>
    <g
       transform="matrix(3.125,0,0,-3.125,-800.00001,2452.3622)"
       id="g8854">
      <g
         id="g8856" />
      <g
         id="g8862">
        <g
           clip-path="url(#clipPath8858)"
           id="g8864"
           style="opacity:0.19999701">
          <g
             transform="translate(272,461)"
             id="g8866">
            <path
               d="m 0,0 c -0.353,0 -1.186,0.072 -1.5,0.184 l -6.99,2.072 -2.343,-1.166 9.845,-1.124 c 0.329,-0.055 1.162,0.018 1.509,0.08 C 0.534,0.048 0.545,0.054 0.558,0.057 0.377,0.022 0.191,0 0,0"
               id="path8868"
               style="fill:#000000;fill-opacity:1;fill-rule:nonzero;stroke:none" />
          </g>
        </g>
      </g>
    </g>
  </g>
</svg>
