<?xml version="1.0" encoding="UTF-8" standalone="no"?>
<!-- Created with Inkscape (http://www.inkscape.org/) -->

<svg
   xmlns:dc="http://purl.org/dc/elements/1.1/"
   xmlns:cc="http://creativecommons.org/ns#"
   xmlns:rdf="http://www.w3.org/1999/02/22-rdf-syntax-ns#"
   xmlns:svg="http://www.w3.org/2000/svg"
   xmlns="http://www.w3.org/2000/svg"
   xmlns:sodipodi="http://sodipodi.sourceforge.net/DTD/sodipodi-0.dtd"
   xmlns:inkscape="http://www.inkscape.org/namespaces/inkscape"
   width="744.09448819"
   height="1052.3622047"
   id="svg2"
   version="1.1"
   inkscape:version="0.48.4 r9939"
   sodipodi:docname="New document 1">
  <defs
     id="defs4">
	
	
	
	

		
	</defs>
  <sodipodi:namedview
     id="base"
     pagecolor="#ffffff"
     bordercolor="#666666"
     borderopacity="1.0"
     inkscape:pageopacity="0.0"
     inkscape:pageshadow="2"
     inkscape:zoom="0.24748737"
     inkscape:cx="1122.6877"
     inkscape:cy="954.16865"
     inkscape:document-units="px"
     inkscape:current-layer="layer1"
     showgrid="false"
     inkscape:window-width="1920"
     inkscape:window-height="1018"
     inkscape:window-x="-8"
     inkscape:window-y="-8"
     inkscape:window-maximized="1" />
  <metadata
     id="metadata7">
    <rdf:RDF>
      <cc:Work
         rdf:about="">
        <dc:format>image/svg+xml</dc:format>
        <dc:type
           rdf:resource="http://purl.org/dc/dcmitype/StillImage" />
        <dc:title></dc:title>
      </cc:Work>
    </rdf:RDF>
  </metadata>
  <g
     inkscape:label="Layer 1"
     inkscape:groupmode="layer"
     id="layer1">
    <text
       xml:space="preserve"
       style="font-size:349.42034912px;font-style:normal;font-variant:normal;font-weight:normal;font-stretch:normal;line-height:125%;letter-spacing:0px;word-spacing:0px;fill:#000000;fill-opacity:1;stroke:none;font-family:Emmett;-inkscape-font-specification:Emmett"
       x="-445.71384"
       y="-50.367081"
       id="text3352"
       sodipodi:linespacing="125%"><tspan
         sodipodi:role="line"
         id="tspan3354"
         x="-445.71384"
         y="-50.367081"
         style="font-style:normal;font-variant:normal;font-weight:normal;font-stretch:normal;font-family:Liquidism;-inkscape-font-specification:Liquidism">+</tspan></text>
    <text
       xml:space="preserve"
       style="font-size:373.91677856px;font-style:normal;font-variant:normal;font-weight:normal;font-stretch:normal;line-height:125%;letter-spacing:0px;word-spacing:0px;fill:#000000;fill-opacity:1;stroke:none;font-family:Enliven;-inkscape-font-specification:Enliven"
       x="-177.10847"
       y="-17.240295"
       id="text3356"
       sodipodi:linespacing="125%"><tspan
         sodipodi:role="line"
         id="tspan3358"
         x="-177.10847"
         y="-17.240295">+</tspan></text>
    <g
       id="g2986"
       transform="translate(-789.32181,300.87174)"
       inkscape:export-filename="E:\matts\Documents\GitHubNew\goodcandyinc.github.io\assets\img\portfolio\flashbang.png"
       inkscape:export-xdpi="90.267059"
       inkscape:export-ydpi="90.267059">
	<g
   id="g2988">
		<g
   id="g2990">
			<path
   id="path2992"
   d="m 250.865,135.251 c -2.599,-1.283 -5.846,-1.475 -9.021,-1.415 -0.144,2.248 -0.306,4.496 -0.48,6.743 2.05,-0.295 4.045,-0.836 5.966,-1.763 0.234,-0.113 1.135,-0.657 1.553,-0.952 -0.04,0.028 1.455,-1.176 0.771,-0.518 0.422,-0.406 0.833,-0.831 1.201,-1.289 0.078,-0.133 0.235,-0.38 0.338,-0.553 -0.174,-0.121 -0.328,-0.233 -0.328,-0.253 z"
   inkscape:connector-curvature="0"
   style="fill:#f6851f" />

		</g>

	</g>

	<g
   id="g2994">
		<g
   id="g2996">
			<path
   id="path2998"
   d="m 252.426,169.544 c -0.325,-0.082 -0.651,-0.153 -0.981,-0.205 -0.602,-0.083 -2.117,-0.111 -3.468,0.102 -1.733,0.273 -4.162,1.199 -5.505,2.114 -0.185,0.171 -0.385,0.329 -0.602,0.471 -0.568,0.526 -1.273,0.926 -2.044,1.192 0.536,0.229 1.067,0.559 1.58,1.013 1.634,1.445 6.022,0.841 8.123,-0.481 1.529,-0.963 2.292,-2.139 2.922,-3.873 0.042,-0.115 0.063,-0.207 0.078,-0.289 -0.038,-0.017 -0.071,-0.03 -0.103,-0.044 z"
   inkscape:connector-curvature="0"
   style="fill:#f6851f" />

		</g>

	</g>

	<g
   id="g3000">
		<g
   id="g3002">
			<path
   id="path3004"
   d="m 244.179,201.926 c -2.356,-0.946 -5.537,-1.573 -7.328,-0.003 -0.32,0.281 -0.676,0.491 -1.05,0.65 -0.255,2.477 -0.511,4.953 -0.767,7.43 3.107,0.629 6.016,0.77 9.225,0.131 0.885,-0.176 2.217,-0.68 2.778,-1.072 0.719,-0.503 0.808,-0.289 0.928,-1.105 0.411,-2.783 -1.167,-4.979 -3.786,-6.031 z"
   inkscape:connector-curvature="0"
   style="fill:#f6851f" />

		</g>

	</g>

	<g
   id="g3006">
		<g
   id="g3008">
			<path
   id="path3010"
   d="m 248.239,100.306 c -0.229,-0.508 -0.538,-1.118 -0.032,-0.327 -0.195,-0.306 -0.279,-0.46 -0.309,-0.534 -0.037,-0.025 -0.092,-0.069 -0.173,-0.14 -0.148,-0.138 -0.31,-0.259 -0.467,-0.386 -0.071,-0.039 -0.17,-0.095 -0.304,-0.172 -0.115,-0.056 -0.86,-0.292 -0.927,-0.339 -1.468,-0.284 -2.987,-0.185 -4.614,0.219 0.27,2.273 0.486,4.549 0.641,6.827 1.004,-0.218 1.987,-0.514 2.95,-0.949 0.854,-0.387 1.925,-1.17 2.218,-1.496 0.883,-0.986 0.383,-0.244 0.702,-0.881 0.067,-0.135 0.207,-0.555 0.286,-0.763 0.028,-0.302 0.051,-0.651 0.072,-0.786 -0.017,-0.103 -0.032,-0.201 -0.043,-0.273 z"
   inkscape:connector-curvature="0"
   style="fill:#f6851f" />

		</g>

	</g>

	<g
   id="g3012">
		<g
   id="g3014">
			<path
   id="path3016"
   d="m 348.49,231.555 c -6.991,-9.327 -12.844,-19.246 -18.396,-29.49 -5.088,-9.389 -9.939,-19.218 -12.334,-29.567 -3.508,3.636 -7.379,7.045 -10.307,10.844 -6.834,8.867 -12.754,18.708 -16.707,29.215 -7.797,20.721 -9.104,43.209 -9.547,65.133 -0.414,20.559 2.023,43.631 -6.705,62.851 -3.631,7.994 -9.04,17.47 -16.791,22.161 -6.718,4.067 -15.284,6.081 -21.638,0.629 -1.022,-0.349 -1.947,-0.91 -2.92,-1.834 -0.888,-0.844 -1.398,-1.791 -1.619,-2.754 -2.05,0.015 -4.065,-1.043 -4.941,-3.56 -7.837,-22.49 -9.245,-46.453 -8.376,-70.085 0.893,-24.299 3.051,-48.549 5.489,-72.733 2.896,-28.719 6.643,-57.622 7.667,-86.489 0.453,-12.777 0.414,-26.154 -3.094,-38.555 -2.989,-10.561 -8.443,-23.341 -19.615,-27.412 -8.904,-3.244 -18.771,1.038 -26.119,6.039 -9.359,6.371 -16.578,14.598 -23.557,23.416 -8.047,10.166 -16.435,20.449 -28.129,26.561 -10.859,5.674 -22.978,4.868 -34.639,2.649 0.028,0.104 0.046,0.211 0.081,0.314 1.325,3.912 4.813,6.407 8.462,8.058 10.722,4.852 20.907,2.178 30.759,-3.768 10.64,-6.42 19.432,-14.812 29.48,-21.957 7.864,-5.59 17.101,-9.721 26.693,-6.078 13.995,5.314 14.694,24.773 14.062,37.229 -0.776,15.272 -3.622,30.244 -6.936,45.141 -6.073,27.299 -14.646,53.943 -17.481,81.897 -1.462,14.409 -2.096,29.032 -2.64,43.507 -0.521,13.846 -0.637,27.762 0.619,41.574 2.383,26.202 9.449,53.669 26.901,74.103 14.097,16.504 34.354,28.265 55.619,32.54 21.513,4.324 44.563,1.443 62.644,-11.684 17.574,-12.76 27.278,-33.681 31.896,-54.362 4.972,-22.272 5.69,-45.147 6.687,-67.862 0.492,-11.23 0.989,-22.484 2.146,-33.672 0.997,-9.636 2.869,-19 4.792,-28.432 -8.163,-6.8 -15.172,-15.118 -21.506,-23.567 z"
   inkscape:connector-curvature="0"
   style="fill:#febf10" />

		</g>

	</g>

	<g
   id="g3018">
		<g
   id="g3020">
			<path
   id="path3022"
   d="m 395.467,179.636 c -6.112,-11.227 -13.79,-21.651 -23.946,-29.555 -4.996,-3.888 -10.932,-8.105 -17.188,-9.631 -2.808,-0.684 -5.935,-1.33 -8.718,-0.141 -1.787,0.764 -6.998,3.799 -5.279,5.978 0.357,0.452 0.616,0.907 0.805,1.36 1.773,3.007 3.367,6.129 4.755,9.328 7.743,17.838 10.617,37.865 20.181,54.912 4.449,7.932 10.271,15.291 18.653,19.293 5.374,2.564 15.967,6.251 19.893,-0.696 8.492,-15.032 -1.918,-37.554 -9.156,-50.848 z"
   inkscape:connector-curvature="0"
   style="fill:#f6851f" />

		</g>

	</g>

	<g
   id="g3024">
		<g
   id="g3026">
			<path
   id="path3028"
   d="m 417.095,228.78 c -0.798,3 -2.024,5.865 -3.842,8.461 -4.864,6.945 -13.501,9.176 -21.58,7.707 -44.068,-8.014 -41.683,-62.078 -60.457,-92.51 -5.113,-6.482 -1.473,-14.051 4.292,-18.678 4.916,-3.947 11.024,-5.672 17.156,-4.896 -5.989,-3.893 -12.734,-7.344 -19.652,-8.871 -6.481,-1.43 -13.366,-1.203 -13.2,7.407 0.2,10.364 5.605,19.653 9.155,29.144 0.993,2.656 -0.063,4.822 -1.848,6.053 0.721,12.752 7.587,25.322 13.621,36.082 4.668,8.322 9.354,16.512 15.005,24.213 5.613,7.648 11.676,15.152 18.737,21.54 3.57,-1.421 8.677,1.062 7.692,5.98 -0.02,0.093 -0.039,0.187 -0.058,0.278 4.287,3.01 9.448,5.463 13.583,3.113 1.241,-0.706 2.482,-0.891 3.626,-0.715 6.542,-2.254 14.13,-1.5 17.406,-8.844 2.39,-5.348 2.011,-10.504 0.364,-15.464 z"
   inkscape:connector-curvature="0"
   style="fill:#f6851f" />

		</g>

	</g>

	<g
   id="g3030">
		<g
   id="g3032">
			<path
   id="path3034"
   d="m 418.335,207.287 c -0.348,-0.593 -0.747,-1.067 -1.181,-1.441 -1.3,-6.368 -3.532,-12.519 -6.008,-18.554 -4.824,-11.76 -11.144,-22.963 -19.332,-32.708 -3.745,-4.458 -7.944,-8.68 -12.531,-12.417 -0.026,-0.517 -0.123,-1.059 -0.316,-1.623 -2.814,-8.228 -10.912,-14.41 -17.793,-19.133 -8.831,-6.062 -19.013,-11.389 -29.744,-12.883 -10.528,-1.465 -18.615,2.956 -21.86,13.28 -3.382,10.758 2.376,22.636 6.814,32.977 -0.204,0.334 -0.389,0.702 -0.535,1.13 -2.558,7.498 -10.631,12.768 -15.57,18.791 -6.645,8.104 -12.17,17.207 -16.702,26.639 -8.878,18.475 -11.61,39.445 -12.712,59.688 -0.57,10.498 -0.709,21.008 -0.867,31.519 -0.152,10.222 0.102,20.659 -1.654,30.757 -1.75,10.062 -6.43,18.145 -12.324,26.287 -2.193,3.029 -5.635,4.98 -9.144,6.043 -1.171,0.355 -2.588,0.236 -3.572,-0.5 -0.579,-0.706 -1.272,-1.273 -2.08,-1.702 l -0.95,-0.321 c -1.044,-0.939 -2.164,-1.354 -3.248,-1.373 -0.021,-0.066 -0.034,-0.131 -0.058,-0.197 -10.305,-29.576 -8.46,-61.319 -6.411,-92.062 0.856,-12.858 2.062,-25.685 3.355,-38.501 10.041,1.678 25.281,-0.799 25.07,-13.668 -0.109,-6.684 -3.887,-12.49 -9.908,-15.242 -3.389,-1.549 -7.924,-2.521 -12.012,-1.968 0.178,-1.792 0.358,-3.585 0.531,-5.377 11.394,5.208 28.828,-4.872 25.572,-18.358 -1.477,-6.114 -7.975,-8.012 -13.485,-8.088 -3.422,-0.048 -6.872,0.804 -9.991,2.309 0.236,-2.948 0.491,-5.899 0.746,-8.853 8.973,-0.696 18.95,-4.878 21.607,-14.106 1.176,-4.084 -0.974,-8.662 -4.323,-11.009 -4.481,-3.142 -9.998,-3.785 -15.362,-3.773 0.057,-2.11 0.073,-4.219 0.068,-6.327 9.417,-1.733 18.903,-8.162 16.461,-19.015 -2.016,-8.958 -11.304,-11.126 -19.244,-9.673 -0.09,-0.42 -0.162,-0.842 -0.258,-1.264 -4.826,-21.423 -20.918,-43.48 -45.404,-37.744 -17.712,4.15 -31.387,18.301 -42.281,32.031 -6.859,8.646 -13.621,17.504 -22.942,23.646 -10.47,6.898 -22.958,5.021 -34.559,2.456 -0.411,-1.808 -0.794,-3.622 -1.23,-5.414 -1.676,-6.886 -12.048,-3.203 -10.383,3.638 0.358,1.47 0.7,2.944 1.044,4.417 -0.248,0.691 -0.376,1.432 -0.338,2.188 0.096,1.913 0.801,3.283 1.893,4.621 -0.007,0.151 -0.013,0.312 -0.018,0.51 -0.025,1.105 0.035,2.115 0.204,3.207 0.771,4.977 3.767,9.104 7.522,12.309 7.24,6.178 18.258,9.338 27.629,8.026 13.74,-1.923 25.425,-10.6 36.33,-18.536 8.098,-5.895 16.318,-16.719 27.046,-17.269 13.197,-0.675 11.326,23.578 10.626,32.286 -1.168,14.508 -4.061,29.07 -7.6,43.182 -7.442,29.67 -15.804,59.211 -17.388,89.928 -1.437,27.852 -3.716,55.703 -0.318,83.514 3.147,25.76 11.642,52.172 28.718,72.163 14.445,16.913 34.058,28.639 55.372,34.651 21.099,5.951 44.452,4.939 64.427,-4.338 20.267,-9.414 34.624,-27.137 42.898,-47.585 17.012,-42.039 10.406,-89.024 16.609,-133.011 0.642,-4.556 1.544,-9.06 2.5,-13.554 5.646,3.007 11.85,4.588 17.951,2.804 1.285,0.319 2.727,0.15 4.158,-0.771 3.824,-2.463 8.993,-2.048 13.248,-3.465 6.035,-2.012 9.753,-7.431 12.226,-12.971 6.355,-14.243 -1.916,-28.131 -8.989,-40.203 z M 241.871,172.025 c 0.217,-0.142 0.417,-0.3 0.602,-0.471 1.343,-0.915 3.771,-1.841 5.505,-2.114 1.351,-0.213 2.866,-0.185 3.468,-0.102 0.33,0.052 0.656,0.123 0.981,0.205 0.032,0.014 0.064,0.027 0.104,0.043 -0.015,0.082 -0.036,0.174 -0.078,0.289 -0.63,1.734 -1.393,2.91 -2.922,3.873 -2.101,1.322 -6.489,1.927 -8.123,0.481 -0.513,-0.454 -1.044,-0.784 -1.58,-1.013 0.769,-0.265 1.474,-0.664 2.043,-1.191 z m 4.157,-73.617 c 0.066,0.047 0.812,0.283 0.927,0.339 0.134,0.077 0.232,0.133 0.304,0.172 0.157,0.127 0.318,0.248 0.467,0.386 0.081,0.07 0.136,0.114 0.173,0.14 0.029,0.074 0.113,0.229 0.309,0.534 -0.506,-0.791 -0.197,-0.181 0.032,0.327 0.011,0.072 0.026,0.17 0.044,0.273 -0.021,0.135 -0.044,0.484 -0.072,0.786 -0.079,0.208 -0.219,0.628 -0.286,0.763 -0.319,0.637 0.181,-0.105 -0.702,0.881 -0.293,0.326 -1.364,1.109 -2.218,1.496 -0.963,0.436 -1.946,0.731 -2.95,0.949 -0.154,-2.278 -0.371,-4.554 -0.641,-6.827 1.626,-0.403 3.145,-0.503 4.613,-0.219 z m -4.184,35.428 c 3.175,-0.06 6.422,0.132 9.021,1.415 0,0.02 0.154,0.132 0.328,0.254 -0.103,0.173 -0.26,0.42 -0.338,0.553 -0.368,0.458 -0.779,0.883 -1.201,1.289 0.684,-0.658 -0.812,0.546 -0.771,0.518 -0.418,0.295 -1.318,0.839 -1.553,0.952 -1.921,0.927 -3.916,1.468 -5.966,1.763 0.175,-2.248 0.337,-4.496 0.48,-6.744 z m -6.043,68.737 c 0.374,-0.159 0.729,-0.369 1.05,-0.65 1.791,-1.57 4.972,-0.943 7.328,0.003 2.619,1.052 4.197,3.248 3.786,6.03 -0.12,0.816 -0.209,0.603 -0.928,1.105 -0.562,0.393 -1.894,0.896 -2.778,1.072 -3.209,0.639 -6.117,0.498 -9.225,-0.131 0.257,-2.476 0.512,-4.952 0.767,-7.429 z m 135.72,-52.492 c 10.156,7.903 17.834,18.328 23.946,29.555 7.237,13.294 17.647,35.816 9.154,50.849 -3.926,6.947 -14.519,3.261 -19.893,0.696 -8.383,-4.002 -14.204,-11.361 -18.653,-19.293 -9.563,-17.047 -12.438,-37.074 -20.181,-54.912 -1.388,-3.199 -2.981,-6.321 -4.755,-9.328 -0.188,-0.453 -0.447,-0.908 -0.805,-1.36 -1.719,-2.179 3.492,-5.214 5.279,-5.978 2.783,-1.189 5.91,-0.543 8.718,0.141 6.258,1.525 12.194,5.742 17.19,9.63 z m -6.316,133.471 c -1.157,11.188 -1.654,22.441 -2.146,33.672 -0.996,22.715 -1.715,45.59 -6.687,67.862 -4.617,20.682 -14.321,41.603 -31.896,54.362 -18.08,13.127 -41.131,16.008 -62.644,11.684 -21.265,-4.275 -41.522,-16.036 -55.619,-32.54 -17.452,-20.434 -24.519,-47.9 -26.901,-74.103 -1.256,-13.812 -1.14,-27.729 -0.619,-41.574 0.544,-14.475 1.178,-29.098 2.64,-43.507 2.835,-27.954 11.408,-54.599 17.481,-81.897 3.313,-14.896 6.159,-29.868 6.936,-45.141 0.633,-12.455 -0.066,-31.914 -14.062,-37.229 -9.593,-3.643 -18.829,0.488 -26.693,6.078 -10.049,7.145 -18.841,15.537 -29.48,21.957 -9.852,5.945 -20.037,8.619 -30.759,3.768 -3.648,-1.65 -7.137,-4.146 -8.462,-8.058 -0.035,-0.104 -0.053,-0.21 -0.081,-0.314 11.661,2.219 23.779,3.024 34.639,-2.649 11.694,-6.111 20.082,-16.395 28.129,-26.561 6.979,-8.818 14.197,-17.045 23.557,-23.416 7.349,-5.001 17.215,-9.283 26.119,-6.039 11.172,4.071 16.626,16.852 19.615,27.412 3.508,12.4 3.547,25.777 3.094,38.555 -1.024,28.867 -4.771,57.771 -7.667,86.489 -2.438,24.185 -4.597,48.435 -5.489,72.733 -0.869,23.632 0.539,47.595 8.376,70.085 0.876,2.517 2.892,3.574 4.941,3.56 0.221,0.963 0.731,1.91 1.619,2.754 0.973,0.924 1.897,1.485 2.92,1.834 6.354,5.452 14.92,3.438 21.638,-0.629 7.751,-4.691 13.16,-14.167 16.791,-22.161 8.729,-19.22 6.291,-42.292 6.705,-62.851 0.442,-21.924 1.75,-44.412 9.547,-65.133 3.953,-10.507 9.873,-20.348 16.707,-29.215 2.928,-3.799 6.799,-7.208 10.307,-10.844 2.395,10.35 7.246,20.179 12.334,29.567 5.553,10.244 11.405,20.163 18.396,29.49 6.334,8.449 13.344,16.768 21.507,23.565 -1.924,9.434 -3.796,18.798 -4.793,28.434 z m 51.528,-39.307 c -3.276,7.344 -10.864,6.59 -17.406,8.844 -1.144,-0.176 -2.385,0.009 -3.626,0.715 -4.135,2.35 -9.296,-0.104 -13.583,-3.113 0.019,-0.092 0.038,-0.186 0.058,-0.278 0.984,-4.919 -4.122,-7.401 -7.692,-5.98 -7.062,-6.388 -13.124,-13.892 -18.737,-21.54 -5.65,-7.701 -10.337,-15.891 -15.005,-24.213 -6.034,-10.76 -12.9,-23.33 -13.621,-36.082 1.784,-1.23 2.841,-3.396 1.848,-6.053 -3.55,-9.49 -8.955,-18.779 -9.155,-29.144 -0.166,-8.61 6.719,-8.837 13.2,-7.407 6.918,1.527 13.663,4.979 19.652,8.871 -6.132,-0.775 -12.24,0.949 -17.156,4.896 -5.765,4.627 -9.405,12.195 -4.292,18.678 18.774,30.432 16.389,84.496 60.457,92.51 8.079,1.469 16.716,-0.762 21.58,-7.707 1.817,-2.596 3.044,-5.461 3.842,-8.461 1.645,4.959 2.024,10.115 -0.364,15.464 z"
   inkscape:connector-curvature="0" />

		</g>

	</g>

</g>
    <g
       id="g3068"
       transform="translate(-148.28675,300.87451)"
       inkscape:export-filename="E:\matts\Documents\GitHubNew\goodcandyinc.github.io\assets\img\portfolio\flashbang.png"
       inkscape:export-xdpi="90.267059"
       inkscape:export-ydpi="90.267059"
       style="fill:#ff2a2a;stroke:#000000">
	<g
   id="g3070"
   style="fill:#ff2a2a;stroke:#000000">
		<g
   id="g3072"
   style="fill:#ff2a2a;stroke:#000000">
			<path
   id="path3074"
   d="m 117.393,222.249 c -0.383,-0.105 -0.736,-0.242 -1.064,-0.4 -4.781,2.709 -8.221,8.285 -10.213,13.09 -1.262,3.043 -3.744,11.172 0.164,12.141 7.457,1.851 13.295,-3.117 15.945,-9.809 2.259,-5.706 2.113,-13.125 -4.832,-15.022 z"
   inkscape:connector-curvature="0"
   style="fill:#ff2a2a;stroke:#000000" />

		</g>

	</g>

	<g
   id="g3076"
   style="fill:#ff2a2a;stroke:#000000">
		<g
   id="g3078"
   style="fill:#ff2a2a;stroke:#000000">
			<path
   id="path3080"
   d="m 263.039,467.412 c -1.445,13.312 12.85,21.913 23.307,13.161 3.502,-2.932 5.922,-6.674 7.512,-10.803 -9.465,-6.443 -29.116,-18.041 -30.819,-2.358 z"
   inkscape:connector-curvature="0"
   style="fill:#ff2a2a;stroke:#000000" />

		</g>

	</g>

	<g
   id="g3082"
   style="fill:#ff2a2a;stroke:#000000">
		<g
   id="g3084"
   style="fill:#ff2a2a;stroke:#000000">
			<path
   id="path3086"
   d="m 420.604,192.392 c -7.523,0.215 -15.549,1.322 -20.383,7.506 -3.781,4.836 -9.791,13.201 -7.094,19.783 3.449,8.422 14.822,0.436 18.809,-3.387 6.121,-5.869 8.975,-13.496 9.568,-21.756 -0.434,-0.652 -0.734,-1.387 -0.9,-2.146 z"
   inkscape:connector-curvature="0"
   style="fill:#ff2a2a;stroke:#000000" />

		</g>

	</g>

	<g
   id="g3088"
   style="fill:#ff2a2a;stroke:#000000">
		<g
   id="g3090"
   style="fill:#ff2a2a;stroke:#000000">
			<path
   id="path3092"
   d="m 389.961,101.964 c -9.773,-1.959 -19.482,-3.2 -28.654,-7.013 0.061,6.622 0.227,13.242 0.436,19.86 0.543,-0.09 1.127,-0.107 1.75,-0.027 18.096,2.316 36.117,5.541 54.346,6.374 0.953,-5 2.088,-9.954 3.381,-14.831 -10.531,-0.393 -20.898,-2.287 -31.259,-4.363 z"
   inkscape:connector-curvature="0"
   style="fill:#ff2a2a;stroke:#000000" />

		</g>

	</g>

	<g
   id="g3094"
   style="fill:#ff2a2a;stroke:#000000">
		<g
   id="g3096"
   style="fill:#ff2a2a;stroke:#000000">
			<path
   id="path3098"
   d="m 356.1,175.547 c -10.111,-0.617 -21.623,0.054 -29.215,7.661 -4.477,4.486 -9.096,12.168 -1.346,16.114 9.613,4.895 20.105,3.972 26.537,-5.448 1.172,-1.718 3.033,-5.286 4.197,-8.405 0.57,-1.532 1.096,-3.109 1.355,-4.729 0.078,-0.482 0.166,-0.914 0.182,-1.366 -1.32,-1.129 -1.81,-2.496 -1.71,-3.827 z"
   inkscape:connector-curvature="0"
   style="fill:#ff2a2a;stroke:#000000" />

		</g>

	</g>

	<g
   id="g3100"
   style="fill:#ff2a2a;stroke:#000000">
		<g
   id="g3102"
   style="fill:#ff2a2a;stroke:#000000">
			<path
   id="path3104"
   d="m 344.672,264.704 c -9.547,-10.375 -23.031,-15.539 -36.42,-18.713 -15.98,-3.787 -32.83,-3.76 -48.906,-0.645 -4.725,0.916 -9.363,2.104 -13.916,3.529 -1.367,-4.408 -2.754,-8.812 -4.186,-13.209 -7.18,-22.051 -14.277,-43.994 -20.619,-66.225 1.791,-4.018 3.555,-8.043 5.291,-12.074 11.73,-27.243 25.811,-54.715 27.648,-84.862 1.23,-20.221 -4.387,-46.188 -25.684,-54.202 -20.717,-7.796 -31.367,14.879 -34.232,31.471 -5.018,29.071 0.906,60.18 7.469,88.5 2.367,10.207 4.986,20.326 7.773,30.395 -3.725,8.178 -7.58,16.296 -11.633,24.318 -6.906,13.673 -14.418,27.077 -22.818,39.891 -7.975,12.164 -16.652,23.85 -24.574,36.053 -13.883,21.389 -28.33,48.422 -17.676,74.195 9.924,24 38.381,34.913 62.221,38.111 25.723,3.451 52.596,2.227 78.125,-3.258 4.059,10.461 8.318,20.846 12.309,31.334 4.709,12.381 9.514,24.975 11.131,38.196 0.416,3.398 0.559,6.999 0.316,10.588 -8.305,-5.526 -17.639,-10.312 -27.416,-9.325 -10.721,1.082 -16.434,10.388 -16.898,20.334 -0.492,10.513 6.797,21.344 16.654,24.826 10.15,3.588 20.492,-0.325 27.736,-7.787 4.133,-4.256 6.906,-9.078 8.654,-14.236 0.959,-1.002 1.574,-2.414 1.574,-4.148 v -1.882 c 3.035,-16.302 -2.346,-34.937 -7.52,-49.706 -4.832,-13.789 -10.189,-27.311 -15.363,-40.891 0.254,-0.068 0.512,-0.129 0.766,-0.198 25.199,-6.86 50.055,-18.563 64.67,-41.123 14.022,-21.644 13.129,-50.121 -4.476,-69.257 z m -58.326,215.869 c -10.457,8.752 -24.752,0.15 -23.307,-13.161 1.703,-15.683 21.354,-4.085 30.818,2.358 -1.589,4.129 -4.009,7.872 -7.511,10.803 z M 204.154,53.814 c 1.047,-8.147 3.426,-17.097 9.172,-23.226 6.74,-7.189 16.889,0.559 21.355,6.452 14.766,19.481 7.225,50.005 0.086,70.713 -5.074,14.722 -11.883,28.716 -17.977,43.019 -0.258,0.605 -0.527,1.205 -0.787,1.811 -0.615,-2.332 -1.24,-4.66 -1.834,-7 C 206.666,116.052 200.23,84.39 204.154,53.814 z M 181.52,367.517 c -12.418,-3.234 -23.979,-9.385 -32.779,-18.799 -9.143,-9.781 -10.596,-22.966 -7.973,-35.603 2.824,-13.601 10.67,-26.237 18.012,-37.824 7.785,-12.286 16.479,-23.979 24.559,-36.073 11.51,-17.228 21.309,-35.568 30.193,-54.32 4.332,14.622 8.982,29.152 13.793,43.666 2.652,7.998 5.219,16.011 7.715,24.038 -21.881,8.849 -41.473,23.175 -58.061,39.95 -5.004,5.061 3.303,12.279 8.264,7.264 15.264,-15.438 33.061,-28.335 53.049,-36.621 5.723,18.919 11.055,37.938 16.078,57.107 4.023,15.363 8.172,30.619 13.596,45.558 0.209,0.573 0.426,1.144 0.635,1.716 -28.562,5.125 -58.755,7.315 -87.081,-0.059 z m 157.775,-38.451 c -6.967,11.358 -18.664,19.624 -30.42,25.425 -9.025,4.455 -18.99,8.139 -28.963,10.678 -4.537,-12.271 -8.785,-24.656 -12.217,-37.395 -6.168,-22.891 -12.275,-45.703 -19.057,-68.369 1.277,-0.41 2.557,-0.816 3.852,-1.189 23.768,-6.849 52.83,-6.175 74.635,6.457 9.873,5.721 16.789,14.996 19.789,25.934 3.588,13.078 -0.768,27.285 -7.619,38.459 z"
   inkscape:connector-curvature="0"
   style="fill:#ff2a2a;stroke:#000000" />

		</g>

	</g>

	<g
   id="g3106"
   style="fill:#ff2a2a;stroke:#000000">
		<g
   id="g3108"
   style="fill:#ff2a2a;stroke:#000000">
			<path
   id="path3110"
   d="m 428.02,95.366 c -12.186,0.467 -24.064,-1.822 -35.959,-4.201 -10.234,-2.047 -20.402,-3.055 -29.838,-7.908 -3.109,-1.601 -5.865,-0.022 -7.115,2.378 -2.506,0.458 -4.822,2.394 -4.816,5.64 0.043,24.438 1.652,48.839 1.939,73.271 -13.527,-0.048 -26.545,2.939 -35.912,13.889 -8.871,10.371 -7.625,23.691 4.328,30.742 14.156,8.35 31.512,3.944 40.596,-9.361 4.383,-6.422 12.527,-22.197 4.164,-28.43 -0.707,-0.527 -1.441,-0.86 -2.172,-1.029 0.016,-0.195 0.027,-0.392 0.027,-0.596 -0.027,-14.703 -0.619,-29.393 -1.15,-44.084 17.986,2.321 35.887,5.364 53.984,6.338 -2.164,16.562 -2.01,33.41 1.867,49.556 -3.984,0.253 -7.924,0.789 -11.844,1.864 -6.631,1.819 -11.455,6.109 -15.787,11.213 -7.227,8.516 -12.246,23.059 -5.262,33.031 7.885,11.26 22.328,6.031 31.188,-0.725 11.453,-8.73 16.113,-21.785 16.338,-35.859 0.025,-1.662 -0.846,-2.971 -2.078,-3.844 0.068,-0.748 0.008,-1.507 -0.217,-2.219 -5.336,-16.979 -5.658,-35.022 -3.201,-52.697 h 0.184 c 6.168,0 6.303,-8.299 1.588,-10.457 1.348,-6.786 3.047,-13.475 4.971,-19.979 1.057,-3.577 -2.538,-6.66 -5.823,-6.533 z m -70.391,85.373 c -0.26,1.62 -0.785,3.197 -1.355,4.729 -1.164,3.119 -3.025,6.688 -4.197,8.405 -6.432,9.42 -16.924,10.343 -26.537,5.448 -7.75,-3.946 -3.131,-11.628 1.346,-16.114 7.592,-7.607 19.104,-8.278 29.215,-7.661 -0.1,1.331 0.391,2.698 1.711,3.826 -0.017,0.453 -0.105,0.885 -0.183,1.367 z m 60.209,-59.581 c -18.229,-0.833 -36.25,-4.058 -54.346,-6.374 -0.623,-0.08 -1.207,-0.062 -1.75,0.027 -0.209,-6.618 -0.375,-13.238 -0.436,-19.86 9.172,3.812 18.881,5.054 28.654,7.013 10.361,2.076 20.729,3.97 31.258,4.363 -1.292,4.877 -2.427,9.831 -3.38,14.831 z m -5.902,95.136 c -3.986,3.822 -15.359,11.809 -18.809,3.387 -2.697,-6.582 3.312,-14.947 7.094,-19.783 4.834,-6.184 12.859,-7.291 20.383,-7.506 0.166,0.76 0.467,1.494 0.9,2.146 -0.594,8.26 -3.447,15.887 -9.568,21.756 z"
   inkscape:connector-curvature="0"
   style="fill:#ff2a2a;stroke:#000000" />

		</g>

	</g>

	<g
   id="g3112"
   style="fill:#ff2a2a;stroke:#000000">
		<g
   id="g3114"
   style="fill:#ff2a2a;stroke:#000000">
			<path
   id="path3116"
   d="m 128.891,149.923 c -7.541,-4.574 -16.379,-4.001 -24.377,-7.14 -6.949,-2.728 -11.424,-7.54 -15.602,-12.118 -0.443,-0.789 -1.104,-1.506 -2.021,-2.074 -0.186,-0.115 -0.371,-0.23 -0.557,-0.345 -1.566,-0.97 -4.082,-0.71 -5.521,0.368 -0.02,0.013 -0.037,0.026 -0.055,0.04 -2.449,1.829 -2.904,4.595 -1.725,6.996 -1.354,2.081 -1.627,5.015 0.445,7.333 8.873,9.92 11.773,24.342 16.576,36.404 4.42,11.1 7.445,23.491 13.307,34.064 -14.359,10.582 -26.225,40.697 -3.57,44.769 25.488,4.579 40.877,-37.055 15.637,-46.149 -4.012,-5.857 -6.307,-12.528 -8.566,-19.214 -2.266,-6.7 -4.918,-13.165 -7.461,-19.753 -2.832,-7.338 -5.234,-14.881 -8.434,-22 5.205,2.619 10.545,4.02 16.59,5.092 6.02,1.068 17.109,4.588 15.965,12.734 -0.4,2.842 -3.033,5.031 -4.855,7.01 -2.129,2.312 -3.984,4.866 -5.15,7.796 -2.609,6.554 7.232,11.479 9.854,4.895 1.334,-3.349 3.84,-5.668 6.191,-8.321 2.461,-2.773 3.676,-5.793 4.758,-9.279 2.6,-8.38 -4.879,-17.134 -11.429,-21.108 z m -12.563,71.926 c 0.328,0.158 0.682,0.295 1.064,0.4 6.945,1.896 7.092,9.316 4.832,15.021 -2.65,6.691 -8.488,11.659 -15.945,9.809 -3.908,-0.969 -1.426,-9.098 -0.164,-12.141 1.992,-4.804 5.432,-10.38 10.213,-13.089 z"
   inkscape:connector-curvature="0"
   style="fill:#ff2a2a;stroke:#000000" />

		</g>

	</g>

</g>
    <g
       id="g3152"
       transform="translate(522.88832,302.30006)"
       inkscape:export-filename="E:\matts\Documents\GitHubNew\goodcandyinc.github.io\assets\img\portfolio\flashbang.png"
       inkscape:export-xdpi="90.267059"
       inkscape:export-ydpi="90.267059">
		<g
   id="g3154">
			<g
   id="g3156">
				<path
   style="fill:#14b6b9"
   inkscape:connector-curvature="0"
   d="m 442.682,289.617 c -0.821,-14.992 -1.581,-29.982 -2.714,-44.957 -1.215,-16.057 -2.539,-32.131 -2.828,-48.238 -0.046,-2.577 -0.059,-5.156 -0.061,-7.735 H 316.756 v -1 l -29.792,-11.627 -1.208,-63.765 c -19.514,0.096 -39.025,0.327 -58.528,1.199 -32.28,1.441 -64.577,4.316 -96.354,10.309 -7.725,1.455 -15.715,2.014 -23.51,3.104 -7.523,1.051 -15.051,2.125 -22.611,2.889 -3.562,0.359 -7.072,0.346 -10.645,0.52 -1.805,0.086 -3.615,0.174 -5.409,0.396 -0.151,0.02 -0.332,0.035 -0.518,0.053 -0.265,0.359 -0.575,0.689 -0.919,0.982 0.324,1.346 0.111,2.844 -0.943,4.232 -4.678,6.156 -5.264,15.365 -5.337,22.793 -0.095,9.842 0.841,19.664 2.175,29.406 3.119,22.818 7.126,45.51 10.252,68.332 2.035,14.869 4.348,29.861 5.162,44.857 0.588,10.832 -0.4,25.541 6.846,34.527 3.656,4.531 7.402,7.729 13.232,9.121 5.269,1.258 10.616,1.676 16.025,1.707 14.582,0.082 29.174,-0.182 43.736,-0.965 32.447,-1.746 64.727,-5.482 97.062,-8.561 32.701,-3.113 65.491,-4.334 98.23,-6.891 16.51,-1.291 33.004,-2.766 49.495,-4.266 9.864,-0.895 21.535,-1.365 30.239,-6.654 10.44,-6.34 9.846,-18.811 9.246,-29.768 z"
   id="path3158" />

			</g>

		</g>

		<g
   id="g3160">
			<g
   id="g3162">
				<path
   style="fill:#127274"
   inkscape:connector-curvature="0"
   d="m 67.364,124.422 c 1.618,1.264 2.047,2.887 1.723,4.383 0.65,-1.117 0.563,-2.596 -1.723,-4.383 z"
   id="path3164" />

			</g>

		</g>

		<g
   id="g3166">
			<g
   id="g3168">
				<path
   style="fill:#127274"
   inkscape:connector-curvature="0"
   d="m 324.602,371.184 c -11.429,1.176 -22.843,2.656 -34.308,4.223 -18.82,2.572 -37.717,4.512 -56.656,5.916 2.424,4.139 4.027,8.76 5.119,13.41 1.826,7.77 3.049,15.875 3.184,23.945 0.684,0.729 1.113,1.756 1.1,3.102 -0.009,1 -0.09,1.943 -0.229,2.859 1.087,1.121 1.752,2.697 1.549,4.332 0.068,0.033 0.115,0.055 0.122,0.057 2.597,0.766 5.269,1.244 7.951,1.566 6.362,0.762 12.8,0.975 19.201,0.77 2.319,-0.074 4.683,-0.123 6.979,-0.488 1.479,-0.234 -2.74,-0.209 1.053,-0.197 1.049,0 2.096,0.006 3.145,0.018 2.711,0.033 5.423,0.088 8.136,0.117 9.47,0.102 19.165,0.125 28.302,-2.422 0.623,-1.203 1.797,-2.088 3.555,-2.195 -4.331,-17.486 -9.173,-39.572 1.797,-55.013 z"
   id="path3170" />

			</g>

		</g>

		<g
   id="g3172">
			<g
   id="g3174">
				<path
   style="fill:#127274"
   inkscape:connector-curvature="0"
   d="m 398.065,432.074 c -1.945,-11.482 -17.647,-16.756 -27.273,-18.566 -13.67,-2.57 -27.514,-2.83 -41.375,-2.854 0.775,3.977 1.725,7.854 2.631,11.471 0.465,0.484 0.91,0.982 1.271,1.555 1.381,2.189 1.058,5.537 -1.349,6.941 -0.189,0.111 -0.372,0.197 -0.555,0.289 0.139,1.945 -0.84,3.975 -3.211,4.973 -13.049,5.49 -27.531,5.033 -41.408,4.83 -7.143,-0.105 -14.27,0.807 -21.508,0.654 -5.865,-0.125 -29.791,-0.826 -31.774,-9.537 -1.257,-1.072 -2.085,-2.705 -1.868,-4.621 0.291,-2.543 0.393,-5.143 0.371,-7.758 -3.684,1.727 -7.752,2.465 -11.59,3.777 -14.682,5.023 -30.279,9.363 -44.064,16.604 -9.048,4.752 -23.021,13.225 -17.582,25.678 4.41,10.1 18.826,12.125 28.406,13.367 24.49,3.176 49.845,3.027 74.473,1.787 27.027,-1.363 54.312,-4.791 80.061,-13.443 12.402,-4.168 23.473,-10.068 35.161,-15.764 7.105,-3.463 22.928,-9.098 21.183,-19.383 z"
   id="path3176" />

			</g>

		</g>

		<g
   id="g3178">
			<g
   id="g3180">
				<path
   style="fill:#127274"
   inkscape:connector-curvature="0"
   d="m 474.606,268.223 c -0.273,-15.703 0.203,-31.426 0.414,-47.127 0.146,-10.736 0.388,-21.569 0.372,-32.409 h -28.334 c 0.267,28.918 3.01,57.82 4.741,86.669 0.76,12.686 2.877,26.545 -1.342,38.857 -3.211,9.373 -12.077,15.014 -21.217,17.68 -11.416,3.332 -23.393,3.959 -35.17,5.018 -16.49,1.482 -32.984,2.928 -49.498,4.111 -32.707,2.346 -65.393,3.855 -98.039,7.094 -32.314,3.207 -64.637,6.842 -97.104,8.062 -13.523,0.508 -27.264,1.072 -40.789,0.285 -10.652,-0.619 -22.107,-3.129 -29.131,-11.885 -7.504,-9.357 -9.593,-20.275 -10.34,-32.023 -0.895,-14.062 -2.162,-27.969 -3.963,-41.953 -3.516,-27.293 -8.391,-54.385 -12.026,-81.654 -1.468,-11.02 -2.556,-22.137 -2.042,-33.266 0.426,-9.184 1.927,-18.66 7.576,-26.176 -1.771,-3.836 2.676,-7.674 6.906,-8.424 4.604,-0.816 9.363,-0.877 14.027,-0.889 10.125,-0.023 20.623,-2.393 30.639,-3.775 11.145,-1.539 22.205,-3.166 33.313,-4.93 45.862,-7.287 92.306,-8.916 138.671,-9.213 1.161,-0.007 2.322,-0.007 3.483,-0.011 V 87.746 c -1.125,-0.074 -2.252,-0.153 -3.376,-0.225 -32.805,-2.096 -65.349,-3.42 -98.181,-1.076 -30.907,2.207 -61.618,6.52 -92.524,8.65 -13.32,0.916 -27.195,1.869 -39.742,6.807 -4.537,1.787 -8.305,4.254 -11.977,7.461 -1.589,1.387 -3.19,2.949 -4.393,4.689 -1.018,1.471 -1.027,1.543 -0.354,2.33 1.945,2.275 1.188,4.686 -0.592,6.133 1.305,48.299 7.707,96.23 14.119,144.064 2.969,22.137 6.832,44.445 7.666,66.785 0.312,8.396 -0.107,18.441 5.137,25.551 4.102,5.559 10.506,9.074 17.057,10.988 9.32,2.725 19.029,3.664 28.711,3.76 15.518,0.152 31.018,0.691 46.542,0.58 32.934,-0.234 66.248,-0.943 99.034,-4.271 32.178,-3.268 64.081,-9.48 96.424,-11.109 16.457,-0.828 32.936,-0.027 49.394,-1.35 7.771,-0.625 15.432,-2.381 23.22,-3.059 1.312,-1.566 3.463,-2.398 5.85,-1.268 11.033,5.238 25.109,3.479 34.639,-4.213 10.949,-8.84 12.688,-25.873 13.133,-38.992 0.474,-13.94 -0.691,-27.829 -0.934,-41.758 z m -203.757,93.589 c -0.486,0.328 -0.975,0.66 -1.434,1.027 -0.018,0.016 -0.027,0.021 -0.043,0.035 -0.967,0.887 -1.941,1.508 -3.346,1.65 -1.02,0.105 -1.175,-0.064 -1.9,-0.223 -0.314,-0.066 -0.633,-0.109 -0.953,-0.141 -0.244,-0.006 -0.491,-0.008 -0.734,-0.008 -2.555,-0.016 -5.372,-1.717 -5.372,-4.602 v -1.5 c 0,-1.824 0.626,-3.475 2.19,-4.531 1.199,-0.809 2.363,-0.863 3.75,-0.762 0.194,0.014 0.389,0.041 0.579,0.078 0.347,-0.1 0.708,-0.156 1.082,-0.156 h 3 c 2.269,0 4.319,1.098 5.104,3.332 0.746,2.124 -0.062,4.546 -1.923,5.801 z"
   id="path3182" />

			</g>

		</g>

		<g
   id="g3184">
			<g
   id="g3186">
				<path
   style="fill:#010101"
   inkscape:connector-curvature="0"
   d="m 484.552,265.883 c -0.446,-25.733 0.632,-51.462 0.562,-77.196 h -9.721 c 0.016,10.84 -0.227,21.673 -0.372,32.409 -0.211,15.701 -0.688,31.424 -0.414,47.127 0.242,13.93 1.407,27.818 0.936,41.76 -0.445,13.119 -2.184,30.152 -13.133,38.992 -9.529,7.691 -23.605,9.451 -34.639,4.213 -2.387,-1.131 -4.537,-0.299 -5.85,1.268 -7.788,0.678 -15.449,2.434 -23.22,3.059 -16.458,1.322 -32.937,0.521 -49.394,1.35 -32.343,1.629 -64.246,7.842 -96.424,11.109 -32.786,3.328 -66.101,4.037 -99.034,4.271 -15.524,0.111 -31.024,-0.428 -46.542,-0.58 -9.682,-0.096 -19.391,-1.035 -28.711,-3.76 -6.551,-1.914 -12.955,-5.43 -17.057,-10.988 -5.244,-7.109 -4.824,-17.154 -5.137,-25.551 -0.834,-22.34 -4.697,-44.648 -7.666,-66.785 -6.412,-47.834 -12.814,-95.766 -14.119,-144.064 1.78,-1.447 2.537,-3.857 0.592,-6.133 -0.674,-0.787 -0.664,-0.859 0.354,-2.33 1.202,-1.74 2.804,-3.303 4.393,-4.689 3.672,-3.207 7.439,-5.674 11.977,-7.461 12.547,-4.938 26.422,-5.891 39.742,-6.807 30.906,-2.131 61.617,-6.443 92.524,-8.65 32.832,-2.344 65.376,-1.02 98.181,1.076 1.124,0.071 2.251,0.15 3.376,0.225 v -9.923 c -10.777,-0.695 -21.555,-1.385 -32.338,-1.94 -32.453,-1.672 -64.604,-0.234 -96.927,2.879 -16.148,1.557 -32.268,3.387 -48.406,5.039 -13.723,1.404 -27.527,1.615 -41.158,3.904 -11.1,1.865 -21.909,4.955 -30.852,11.959 -5.24,4.102 -13.475,11.84 -11.033,19.078 -0.309,0.666 -0.484,1.439 -0.463,2.322 1.543,65.088 12.566,129.338 20.332,193.846 1.525,12.674 0.456,26.039 3.438,38.473 2.417,10.084 9.169,17.494 18.156,22.344 8.876,4.789 19.391,6.518 29.32,7.357 12.244,1.033 24.682,0.902 36.957,1.068 28.561,0.387 57.154,-0.133 85.669,-1.818 0.86,0.799 2.026,1.318 3.489,1.318 h 1.006 c 0.041,0.041 0.066,0.072 0.117,0.117 1.215,1.049 2.008,2.611 2.77,3.992 2.076,3.764 3.146,8.402 4.002,12.578 0.531,2.58 0.982,5.24 1.346,7.928 -2.163,-0.211 -3.979,1.057 -4.93,2.754 -0.583,0.199 -1.17,0.387 -1.754,0.57 -1.908,0.604 -3.842,1.129 -5.76,1.693 -5.863,1.73 -11.64,3.924 -17.42,5.92 -12.57,4.338 -25.314,8.869 -36.721,15.811 -8.406,5.119 -15.971,12.838 -16.703,23.121 -0.778,10.906 5.299,19.342 14.594,24.33 9.059,4.859 20.006,6.033 30.062,7.061 11.974,1.221 24.073,1.447 36.101,1.631 27.035,0.416 54.188,-0.93 80.84,-5.652 18.741,-3.322 37.192,-8.459 54.572,-16.275 7.752,-3.486 15.113,-7.758 22.711,-11.551 6.692,-3.342 13.725,-7.18 18.046,-13.502 10.31,-15.078 -4.364,-29.113 -16.923,-35.898 -8.553,-4.623 -19.707,-5.625 -29.232,-6.547 -10.189,-0.986 -20.449,-1.047 -30.678,-1.051 -0.851,-10.34 0.67,-20.471 8.32,-27.715 0.998,-0.943 1.438,-1.982 1.473,-2.99 9.956,-0.791 19.945,-1.293 30.014,-1.355 6.604,-0.041 13.203,-0.178 19.801,-0.439 5.885,-0.232 12.19,-0.139 17.938,-1.49 6.972,-1.639 14.734,-2.406 21.897,-2.537 0.283,-0.006 0.549,-0.037 0.805,-0.078 18.354,5.889 40.67,-1.318 49.908,-18.85 5.944,-11.277 7.006,-25.219 7.43,-37.699 0.472,-13.888 -0.778,-27.771 -1.02,-41.648 z M 290.294,375.406 c 11.465,-1.566 22.879,-3.047 34.308,-4.223 -10.97,15.441 -6.128,37.527 -1.798,55.012 -1.758,0.107 -2.932,0.992 -3.555,2.195 -9.137,2.547 -18.832,2.523 -28.302,2.422 -2.713,-0.029 -5.425,-0.084 -8.136,-0.117 -1.049,-0.012 -2.096,-0.018 -3.145,-0.018 -3.793,-0.012 0.426,-0.037 -1.053,0.197 -2.297,0.365 -4.66,0.414 -6.979,0.488 -6.401,0.205 -12.839,-0.008 -19.201,-0.77 -2.683,-0.322 -5.354,-0.801 -7.951,-1.566 -0.007,-0.002 -0.054,-0.023 -0.122,-0.057 0.203,-1.635 -0.462,-3.211 -1.549,-4.332 0.139,-0.916 0.22,-1.859 0.229,-2.859 0.014,-1.346 -0.416,-2.373 -1.1,-3.102 -0.135,-8.07 -1.357,-16.176 -3.184,-23.945 -1.092,-4.65 -2.695,-9.271 -5.119,-13.41 18.94,-1.403 37.837,-3.342 56.657,-5.915 z m 37.91,60.477 c 2.371,-0.998 3.35,-3.027 3.211,-4.973 0.183,-0.092 0.365,-0.178 0.555,-0.289 2.406,-1.404 2.729,-4.752 1.349,-6.941 -0.36,-0.572 -0.806,-1.07 -1.271,-1.555 -0.906,-3.617 -1.855,-7.494 -2.631,-11.471 13.861,0.023 27.705,0.283 41.375,2.854 9.626,1.811 25.328,7.084 27.273,18.566 1.744,10.285 -14.078,15.92 -21.185,19.383 -11.688,5.695 -22.759,11.596 -35.161,15.764 -25.748,8.652 -53.033,12.08 -80.061,13.443 -24.628,1.24 -49.982,1.389 -74.473,-1.787 -9.58,-1.242 -23.996,-3.268 -28.406,-13.367 -5.439,-12.453 8.534,-20.926 17.582,-25.678 13.785,-7.24 29.383,-11.58 44.064,-16.604 3.838,-1.312 7.906,-2.051 11.59,-3.777 0.021,2.615 -0.08,5.215 -0.371,7.758 -0.217,1.916 0.611,3.549 1.868,4.621 1.983,8.711 25.909,9.412 31.774,9.537 7.238,0.152 14.365,-0.76 21.508,-0.654 13.879,0.203 28.361,0.66 41.41,-4.83 z"
   id="path3188" />

			</g>

		</g>

		<g
   id="g3190">
			<g
   id="g3192">
				<path
   style="fill:#010101"
   inkscape:connector-curvature="0"
   d="m 451.8,275.355 c -1.731,-28.849 -4.475,-57.751 -4.741,-86.669 h -9.979 c 0.002,2.579 0.015,5.158 0.061,7.735 0.289,16.107 1.613,32.182 2.828,48.238 1.133,14.975 1.893,29.965 2.714,44.957 0.601,10.957 1.194,23.428 -9.243,29.77 -8.704,5.289 -20.375,5.76 -30.239,6.654 -16.491,1.5 -32.985,2.975 -49.495,4.266 -32.739,2.557 -65.529,3.777 -98.23,6.891 -32.336,3.078 -64.615,6.814 -97.062,8.561 -14.562,0.783 -29.154,1.047 -43.736,0.965 -5.409,-0.031 -10.757,-0.449 -16.025,-1.707 -5.83,-1.393 -9.576,-4.59 -13.232,-9.121 -7.246,-8.986 -6.258,-23.695 -6.846,-34.527 -0.814,-14.996 -3.127,-29.988 -5.162,-44.857 -3.126,-22.822 -7.133,-45.514 -10.252,-68.332 -1.334,-9.742 -2.27,-19.564 -2.175,-29.406 0.073,-7.428 0.659,-16.637 5.337,-22.793 1.055,-1.389 1.268,-2.887 0.943,-4.232 0.344,-0.293 0.654,-0.623 0.919,-0.982 0.186,-0.018 0.366,-0.033 0.518,-0.053 1.794,-0.223 3.604,-0.311 5.409,-0.396 3.572,-0.174 7.082,-0.16 10.645,-0.52 7.561,-0.764 15.088,-1.838 22.611,-2.889 7.795,-1.09 15.785,-1.648 23.51,-3.104 31.776,-5.992 64.073,-8.867 96.354,-10.309 19.503,-0.872 39.015,-1.104 58.528,-1.199 v -10.03 c -1.161,0.004 -2.322,0.004 -3.483,0.011 -46.365,0.297 -92.809,1.926 -138.671,9.213 -11.108,1.764 -22.169,3.391 -33.313,4.93 -10.016,1.383 -20.514,3.752 -30.639,3.775 -4.664,0.012 -9.424,0.072 -14.027,0.889 -4.23,0.75 -8.678,4.588 -6.906,8.424 -5.649,7.516 -7.15,16.992 -7.576,26.176 -0.514,11.129 0.574,22.246 2.042,33.266 3.636,27.27 8.511,54.361 12.026,81.654 1.801,13.984 3.068,27.891 3.963,41.953 0.747,11.748 2.836,22.666 10.34,32.023 7.023,8.756 18.479,11.266 29.131,11.885 13.525,0.787 27.266,0.223 40.789,-0.285 32.467,-1.221 64.789,-4.855 97.104,-8.062 32.646,-3.238 65.332,-4.748 98.039,-7.094 16.514,-1.184 33.008,-2.629 49.498,-4.111 11.777,-1.059 23.754,-1.686 35.17,-5.018 9.14,-2.666 18.006,-8.307 21.217,-17.68 4.213,-12.315 2.096,-26.174 1.336,-38.86 z M 69.087,128.805 c 0.324,-1.496 -0.104,-3.119 -1.723,-4.383 2.286,1.787 2.373,3.266 1.723,4.383 z"
   id="path3194" />

			</g>

		</g>

		<g
   id="g3196">
			<g
   id="g3198">
				<path
   style="fill:#010101"
   inkscape:connector-curvature="0"
   d="m 272.772,356.014 c -0.785,-2.234 -2.836,-3.332 -5.104,-3.332 h -3 c -0.374,0 -0.735,0.057 -1.082,0.156 -0.19,-0.037 -0.385,-0.064 -0.579,-0.078 -1.387,-0.102 -2.551,-0.047 -3.75,0.762 -1.564,1.057 -2.19,2.707 -2.19,4.531 v 1.5 c 0,2.885 2.817,4.586 5.372,4.602 0.243,0 0.49,0.002 0.734,0.008 0.32,0.031 0.639,0.074 0.953,0.141 0.726,0.158 0.881,0.328 1.9,0.223 1.404,-0.143 2.379,-0.764 3.346,-1.65 0.016,-0.014 0.025,-0.02 0.043,-0.035 0.459,-0.367 0.947,-0.699 1.434,-1.027 1.861,-1.258 2.669,-3.68 1.923,-5.801 z"
   id="path3200" />

			</g>

		</g>

	</g>
    <g
       style="fill:#ffd42a;stroke:#000000"
       id="g3204"
       transform="translate(522.88832,302.30006)"
       inkscape:export-filename="E:\matts\Documents\GitHubNew\goodcandyinc.github.io\assets\img\portfolio\flashbang.png"
       inkscape:export-xdpi="90.267059"
       inkscape:export-ydpi="90.267059">
			<path
   style="fill:#ffd42a;stroke:#000000"
   id="path3206"
   d="m 505.749,96.302 c 0.907,-11.458 2.317,-23.177 -0.038,-34.551 -2.254,-10.885 -8.469,-19.089 -17.915,-24.813 -18.591,-11.267 -44.009,-8.134 -64.646,-7.104 -15.372,0.769 -30.192,-0.638 -45.309,-3.524 -16.312,-3.113 -32.657,-7.654 -49.32,-8.302 -10.577,-0.411 -22.079,0.44 -31.692,5.22 -8.477,4.215 -14.143,12.166 -15.025,21.143 -0.875,0.934 -1.467,2.187 -1.531,3.74 -0.677,16.165 0.865,32.242 2.119,48.341 1.025,13.175 0.546,25.552 -0.623,38.679 -1.035,11.618 -1.883,23.866 2.215,35.021 3.389,9.225 10.787,15.312 19.778,18.738 9.79,3.729 20.351,4.633 30.729,5.09 11.481,0.508 23.067,0.295 34.531,-0.389 15.928,-0.95 31.783,-2.835 47.736,-3.414 12.273,-0.444 23.991,1.126 36.156,2.217 10.674,0.958 21.975,1.067 31.88,-3.579 10.243,-4.805 15.997,-14.144 19.216,-24.631 6.769,-22.062 -0.039,-45.429 1.739,-67.882 z m -11.274,14.474 c 0.703,11.666 1.818,23.292 1.339,34.993 -0.421,10.259 -2.53,22.887 -10.749,29.974 -8.049,6.938 -20.104,6.662 -30.051,5.854 -11.844,-0.963 -23.314,-2.658 -35.25,-2.488 -27.98,0.396 -55.639,4.733 -83.686,3.986 -9.877,-0.263 -20.326,-1.114 -29.551,-4.9 -9.637,-3.957 -13.381,-11.86 -14.353,-21.874 -1.485,-15.285 2.473,-30.548 2.12,-45.843 -0.424,-18.33 -3.072,-36.468 -3.191,-54.788 1.558,-1.293 2.504,-3.348 1.844,-5.821 -2.867,-10.754 6.996,-16.967 15.715,-19.278 9.158,-2.428 19.371,-2.06 28.668,-0.794 15.361,2.092 30.417,5.984 45.681,8.641 13.188,2.295 26.374,3.043 39.731,2.428 11.184,-0.514 22.35,-1.276 33.549,-0.754 10.048,0.469 21.123,2.338 29.338,8.533 18.255,13.766 7.693,43.024 8.846,62.131 z"
   inkscape:connector-curvature="0" />

		</g>
    <g
       id="g3208"
       transform="translate(522.88832,302.30006)"
       style="fill:#ffd42a;stroke:#000000"
       inkscape:export-filename="E:\matts\Documents\GitHubNew\goodcandyinc.github.io\assets\img\portfolio\flashbang.png"
       inkscape:export-xdpi="90.267059"
       inkscape:export-ydpi="90.267059">
		<g
   id="g3210"
   style="fill:#ffd42a;stroke:#000000">
			<path
   inkscape:connector-curvature="0"
   d="m 380.314,143.251 c -1.434,-12.682 -0.419,-25.688 -0.983,-38.378 -0.54,-12.163 -0.091,-24.433 -0.091,-36.61 0,-7.089 -10.969,-6.211 -10.969,0.848 0,10.771 -0.282,21.597 -0.028,32.378 -8.747,-2.075 -17.351,-4.852 -26.269,-5.883 -0.337,-10.779 -0.712,-21.56 -0.734,-32.343 -0.014,-7.09 -10.984,-6.213 -10.969,0.848 0.049,24.671 1.949,49.326 1,74 -0.273,7.07 10.699,6.167 10.969,-0.848 0.395,-10.234 0.295,-20.466 0.045,-30.696 8.891,1.12 17.619,4.335 26.319,6.267 0.305,14.655 -0.45,29.237 2.96,43.672 1.23,5.209 10.162,4.602 10.59,-0.77 0.189,-2.359 0.812,-4.639 1,-7 0.202,-2.532 -1.088,-4.426 -2.84,-5.485 z"
   id="path3212"
   style="fill:#ffd42a;stroke:#000000" />

		</g>

	</g>
    <g
       id="g3214"
       transform="translate(522.88832,302.30006)"
       style="fill:#ffd42a;stroke:#000000"
       inkscape:export-filename="E:\matts\Documents\GitHubNew\goodcandyinc.github.io\assets\img\portfolio\flashbang.png"
       inkscape:export-xdpi="90.267059"
       inkscape:export-ydpi="90.267059">
		<g
   id="g3216"
   style="fill:#ffd42a;stroke:#000000">
			<path
   inkscape:connector-curvature="0"
   d="m 440.625,67.819 c -4.902,-5.078 -11.885,-8.347 -18.943,-8.574 -6.203,-0.2 -14.207,0.271 -16.854,6.994 -0.336,0.853 -0.457,1.676 -0.416,2.451 -2.165,0.709 -4.033,2.568 -4.141,5.42 -0.896,23.727 2.893,47.293 3,71 0.017,3.717 3.68,5.412 6.76,4.84 0.673,1.133 1.871,1.965 3.676,2.135 26.519,2.494 41.75,-24.398 41.912,-47.883 0.09,-13.123 -5.979,-27.047 -14.994,-36.383 z m -24.82,73.469 c -0.197,-0.019 -0.39,-0.025 -0.579,-0.025 0.208,-1.628 -0.265,-2.965 -1.122,-3.952 -0.643,-20.388 -3.39,-40.694 -2.939,-61.109 0.045,-0.301 0.076,-0.61 0.076,-0.938 v -1.086 c 1.428,-0.259 2.719,-1.2 3.443,-3.043 0.883,-2.247 9.36,-0.747 11.299,-0.041 5.023,1.828 8.655,5.967 11.531,10.293 4.937,7.424 7.367,16.936 7.094,25.803 -0.465,15.119 -11.233,35.75 -28.803,34.098 z"
   id="path3218"
   style="fill:#ffd42a;stroke:#000000" />

		</g>

	</g>
    <g
       id="g3262"
       transform="matrix(1.2961875,0,0,1.2961875,1399.6873,225.04929)"
       inkscape:export-filename="E:\matts\Documents\GitHubNew\goodcandyinc.github.io\assets\img\portfolio\flashbang.png"
       inkscape:export-xdpi="90.267059"
       inkscape:export-ydpi="90.267059">
	<g
   id="g3264">
		<g
   id="g3266">
			<path
   id="path3268"
   d="m 158.425,271.373 c -9.797,-8.688 -24.763,-12.41 -37.506,-9.037 -14.117,3.735 -22.418,14.531 -21.995,29.24 0.087,3.024 -1.867,4.908 -4.147,5.527 5.239,14.998 20.608,24.114 36.855,25.36 11.602,0.89 26.094,-2.601 32.382,-13.397 7,-12.019 4.932,-28.361 -5.589,-37.693 z"
   inkscape:connector-curvature="0"
   style="fill:#f6851f" />

		</g>

	</g>

	<g
   id="g3270">
		<g
   id="g3272">
			<path
   id="path3274"
   d="m 417.652,248.461 c -10.291,-9.377 -26.167,-8.128 -37.751,-1.75 -13.071,7.196 -22.635,19.71 -22.98,34.843 0,0.008 0.002,0.015 0.002,0.022 0.414,8.678 3.26,17.021 10.538,22.273 5.995,4.326 13.869,5.727 21.121,5.152 12.815,-1.012 26.506,-7.5 33.211,-18.924 7.258,-12.365 7.074,-31.397 -4.141,-41.616 z"
   inkscape:connector-curvature="0"
   style="fill:#f6851f" />

		</g>

	</g>

	<g
   id="g3276">
		<g
   id="g3278">
			<path
   id="path3280"
   d="M 459.597,186.593 C 450.514,163.146 437.378,141.152 421.501,121.677 389.482,82.4 344.56,50.613 293.918,41.83 239.343,32.367 181.42,52.176 137.464,84.326 c -22.55,16.494 -42.875,36.82 -56.866,61.162 -7.978,13.88 -14.158,28.537 -19.207,43.611 -5.545,9.997 -9.411,21.002 -12.395,31.936 -2.864,10.492 -4.902,21.375 -5.898,32.317 -0.246,0.945 -0.505,1.888 -0.796,2.823 -0.176,0.566 -0.42,1.064 -0.715,1.5 -0.604,5.3 -0.979,10.646 -1.002,16.076 -0.078,17.893 1.975,35.86 6.252,53.242 10.883,44.227 34.07,87.921 71.034,115.71 21.682,16.301 47.362,24.579 74.134,27.747 29.256,3.462 59.565,2.446 88.706,-1.685 28.885,-4.096 58.082,-11.26 84.073,-24.874 23.308,-12.208 42.546,-29.005 58.472,-49.896 29.556,-38.771 47.412,-87.909 48.11,-136.792 0.342,-24.006 -3.068,-48.148 -11.769,-70.61 z M 177.331,305.871 c -4.569,13.943 -15.789,23.247 -30.042,26.344 -29.365,6.382 -63.681,-11.559 -65.335,-43.791 -0.216,-4.201 3.553,-6.207 6.733,-5.669 2.678,-14.56 12.46,-26.533 27.794,-30.591 16.643,-4.404 36.318,-1 49.206,10.945 11.481,10.642 16.604,27.628 11.644,42.762 z m 16.916,-78.053 c -3.428,-9.259 -14.545,-15.291 -23.933,-16.381 -4.527,-0.525 -5.636,-0.098 -9.58,2.168 -1.502,0.863 -3.02,1.744 -4.435,2.753 1.193,3.747 -1.217,8.5 -5.91,7.04 -6.763,-2.104 -8.732,-8.642 -3.344,-13.65 2.5,-2.323 5.429,-4.123 8.415,-5.752 2.258,-1.23 4.973,-3.182 7.556,-3.48 16.28,-1.892 35.758,7.844 41.615,23.666 2.469,6.67 -7.926,10.277 -10.384,3.636 z m 94.017,120.724 c -1.891,7.892 -5.101,16.222 -11.311,21.733 -7.559,6.707 -19.16,7.044 -27.675,1.686 -9.426,-5.932 -15.462,-15.112 -20.399,-24.885 -3.157,-6.249 5.924,-12.477 9.119,-6.152 3.417,6.764 7.307,14.048 13.227,18.97 4.71,3.916 12.321,7.144 17.805,2.763 4.036,-3.225 6.427,-8.748 7.767,-13.613 0.65,-2.363 1.22,-4.768 1.503,-7.205 0.171,-1.477 0.19,-0.645 0.123,-1.869 -0.007,-0.246 -0.026,-0.491 -0.06,-0.734 0.211,2.049 1.554,3.438 4.026,4.164 -6.704,-2.068 -4.675,-12.889 2.099,-10.797 6.83,2.106 5.054,10.608 3.776,15.939 z m 44.659,-132.966 c 0,7.059 -10.97,7.937 -10.97,0.848 v -6 c 0,-2.729 1.276,-4.447 3.666,-5.615 8.34,-4.076 17.957,-7.469 27.39,-6.088 9.069,1.328 16.027,6.658 20.989,14.203 3.898,5.929 -5.217,12.086 -9.119,6.152 -8.031,-12.214 -20.359,-10.551 -31.956,-5.57 v 2.07 z m 104.081,65.006 c -2.898,15.162 -13.328,27.139 -27.011,33.826 -12.602,6.158 -28.116,7.854 -41.308,2.514 -13.115,-5.311 -20.623,-17.137 -22.372,-30.638 -0.209,-0.546 -0.338,-1.163 -0.36,-1.86 -0.595,-18.915 9.809,-36.535 26.183,-45.926 14.257,-8.177 33.002,-11.447 47.623,-2.216 14.309,9.034 20.342,28.1 17.245,44.3 z"
   inkscape:connector-curvature="0"
   style="fill:#febf10" />

		</g>

	</g>

	<g
   id="g3282">
		<g
   id="g3284">
			<path
   id="path3286"
   d="M 472.191,191.259 C 464.628,167.776 452.081,145.536 437.586,125.675 407.601,84.591 365.261,51.621 316.375,36.625 264.079,20.582 208.6,32.451 161.134,57.43 c -31.151,16.393 -59.95,39.982 -80.367,68.797 -12.212,17.236 -21.066,36.309 -27.945,56.136 -0.346,0.312 -0.668,0.672 -0.952,1.103 -1.134,1.715 -2.147,3.529 -3.066,5.409 -2.884,5.294 -4.762,11.36 -6.673,17.03 -0.592,1.758 -1.698,4.441 -2.353,7.179 -0.406,0.559 -0.722,1.23 -0.889,2.051 -2.585,12.722 -5.829,25.29 -7.336,38.206 -1.291,11.058 -1.517,22.248 -0.986,33.36 1.108,23.138 6.08,46.159 13.796,67.967 15.097,42.67 42.626,82.675 82.03,106.071 24.25,14.397 53.221,19.781 81.037,21.354 29.367,1.66 59.055,-0.15 88.013,-5.254 28.329,-4.993 55.977,-13.608 81.158,-27.67 22.388,-12.501 40.811,-30.277 56.153,-50.678 29.442,-39.147 46.388,-87.405 48.713,-136.25 1.142,-23.958 -1.921,-48.145 -9.276,-70.982 z m -0.825,65.945 c -0.699,48.883 -18.554,98.021 -48.11,136.792 -15.925,20.892 -35.164,37.688 -58.472,49.896 -25.991,13.614 -55.188,20.778 -84.073,24.874 -29.141,4.131 -59.45,5.146 -88.706,1.685 -26.772,-3.168 -52.453,-11.446 -74.134,-27.747 -36.963,-27.789 -60.15,-71.483 -71.034,-115.71 -4.277,-17.382 -6.331,-35.35 -6.252,-53.242 0.023,-5.43 0.398,-10.776 1.002,-16.076 0.295,-0.436 0.54,-0.934 0.715,-1.5 0.291,-0.936 0.55,-1.878 0.796,-2.823 0.996,-10.942 3.034,-21.825 5.898,-32.317 2.984,-10.934 6.85,-21.938 12.395,-31.936 5.049,-15.074 11.229,-29.731 19.207,-43.611 13.991,-24.342 34.315,-44.668 56.866,-61.162 43.956,-32.15 101.879,-51.959 156.454,-42.496 50.643,8.782 95.565,40.569 127.583,79.847 15.876,19.475 29.013,41.469 38.096,64.916 8.701,22.461 12.111,46.603 11.769,70.61 z"
   inkscape:connector-curvature="0"
   style="fill:#010101" />

		</g>

	</g>

	<g
   id="g3288">
		<g
   id="g3290">
			<path
   id="path3292"
   d="m 204.63,224.182 c -5.857,-15.822 -25.335,-25.558 -41.615,-23.666 -2.583,0.299 -5.298,2.25 -7.556,3.48 -2.985,1.629 -5.915,3.429 -8.415,5.752 -5.388,5.009 -3.419,11.547 3.344,13.65 4.693,1.46 7.104,-3.293 5.91,-7.04 1.416,-1.009 2.933,-1.89 4.435,-2.753 3.944,-2.266 5.052,-2.693 9.58,-2.168 9.388,1.09 20.505,7.122 23.933,16.381 2.459,6.641 12.854,3.034 10.384,-3.636 z"
   inkscape:connector-curvature="0"
   style="fill:#010101" />

		</g>

	</g>

	<g
   id="g3294">
		<g
   id="g3296">
			<path
   id="path3298"
   d="m 373.998,212.924 c -4.961,-7.545 -11.919,-12.875 -20.989,-14.203 -9.433,-1.381 -19.049,2.012 -27.39,6.088 -2.39,1.168 -3.666,2.887 -3.666,5.615 v 6 c 0,7.089 10.97,6.211 10.97,-0.848 v -2.07 c 11.596,-4.98 23.925,-6.644 31.956,5.57 3.902,5.934 13.017,-0.223 9.119,-6.152 z"
   inkscape:connector-curvature="0"
   style="fill:#010101" />

		</g>

	</g>

	<g
   id="g3300">
		<g
   id="g3302">
			<path
   id="path3304"
   d="m 284.488,332.602 c -6.774,-2.092 -8.802,8.729 -2.099,10.797 -2.473,-0.727 -3.815,-2.115 -4.026,-4.164 0.033,0.243 0.053,0.488 0.06,0.734 0.068,1.225 0.049,0.393 -0.123,1.869 -0.283,2.438 -0.853,4.842 -1.503,7.205 -1.34,4.865 -3.731,10.389 -7.767,13.613 -5.484,4.381 -13.095,1.153 -17.805,-2.763 -5.92,-4.922 -9.81,-12.206 -13.227,-18.97 -3.195,-6.324 -12.276,-0.097 -9.119,6.152 4.937,9.772 10.974,18.953 20.399,24.885 8.515,5.358 20.116,5.021 27.675,-1.686 6.21,-5.512 9.42,-13.842 11.311,-21.733 1.278,-5.33 3.054,-13.832 -3.776,-15.939 z"
   inkscape:connector-curvature="0"
   style="fill:#010101" />

		</g>

	</g>

	<g
   id="g3306">
		<g
   id="g3308">
			<path
   id="path3310"
   d="m 165.687,263.109 c -12.888,-11.945 -32.563,-15.35 -49.206,-10.945 -15.334,4.058 -25.116,16.031 -27.794,30.591 -3.18,-0.538 -6.949,1.468 -6.733,5.669 1.655,32.232 35.97,50.173 65.335,43.791 14.253,-3.097 25.473,-12.4 30.042,-26.344 4.96,-15.134 -0.163,-32.12 -11.644,-42.762 z m -1.673,45.957 c -6.289,10.797 -20.781,14.287 -32.382,13.397 -16.248,-1.246 -31.617,-10.362 -36.855,-25.36 2.281,-0.619 4.234,-2.503 4.147,-5.527 -0.423,-14.709 7.878,-25.505 21.995,-29.24 12.744,-3.373 27.709,0.349 37.506,9.037 10.521,9.332 12.589,25.674 5.589,37.693 z"
   inkscape:connector-curvature="0"
   style="fill:#010101" />

		</g>

	</g>

	<g
   id="g3312">
		<g
   id="g3314">
			<path
   id="path3316"
   d="m 419.759,236.282 c -14.621,-9.231 -33.365,-5.961 -47.623,2.216 -16.374,9.391 -26.778,27.011 -26.183,45.926 0.022,0.697 0.151,1.314 0.36,1.86 1.75,13.501 9.257,25.327 22.372,30.638 13.192,5.34 28.706,3.645 41.308,-2.514 13.683,-6.688 24.112,-18.664 27.011,-33.826 3.097,-16.2 -2.936,-35.266 -17.245,-44.3 z m 2.034,53.796 c -6.705,11.424 -20.396,17.912 -33.211,18.924 -7.252,0.574 -15.126,-0.826 -21.121,-5.152 -7.278,-5.252 -10.124,-13.596 -10.538,-22.273 0,-0.008 -0.002,-0.015 -0.002,-0.022 0.345,-15.133 9.91,-27.646 22.98,-34.843 11.583,-6.378 27.46,-7.627 37.751,1.75 11.215,10.218 11.399,29.25 4.141,41.616 z"
   inkscape:connector-curvature="0"
   style="fill:#010101" />

		</g>

	</g>

</g>
    <text
       xml:space="preserve"
       style="font-size:352.11526488999999000px;font-style:normal;font-variant:normal;font-weight:normal;font-stretch:normal;line-height:125%;letter-spacing:0px;word-spacing:0px;fill:#ffffff;fill-opacity:1;stroke:none;font-family:Valken;-inkscape-font-specification:Valken"
       x="-317.58609"
       y="655.47668"
       id="text3360"
       sodipodi:linespacing="125%"
       inkscape:export-filename="E:\matts\Documents\GitHubNew\goodcandyinc.github.io\assets\img\portfolio\flashbang.png"
       inkscape:export-xdpi="90.267059"
       inkscape:export-ydpi="90.267059"><tspan
         sodipodi:role="line"
         id="tspan3362"
         x="-317.58609"
         y="655.47668"
         style="font-style:normal;font-variant:normal;font-weight:normal;font-stretch:normal;font-family:Segoe Script;-inkscape-font-specification:Segoe Script;fill:#ffffff">+</tspan></text>
    <text
       xml:space="preserve"
       style="font-size:352.11526488999999000px;font-style:normal;font-variant:normal;font-weight:normal;font-stretch:normal;line-height:125%;letter-spacing:0px;word-spacing:0px;fill:#ffffff;fill-opacity:1;stroke:none;font-family:Valken;-inkscape-font-specification:Valken"
       x="321.12045"
       y="655.47668"
       id="text3360-1"
       sodipodi:linespacing="125%"
       inkscape:export-filename="E:\matts\Documents\GitHubNew\goodcandyinc.github.io\assets\img\portfolio\flashbang.png"
       inkscape:export-xdpi="90.267059"
       inkscape:export-ydpi="90.267059"><tspan
         sodipodi:role="line"
         id="tspan3362-7"
         x="321.12045"
         y="655.47668"
         style="font-style:normal;font-variant:normal;font-weight:normal;font-stretch:normal;font-family:Segoe Script;-inkscape-font-specification:Segoe Script;fill:#ffffff">+</tspan></text>
    <text
       xml:space="preserve"
       style="font-size:414.34320068000000000px;font-style:normal;font-variant:normal;font-weight:normal;font-stretch:normal;line-height:125%;letter-spacing:0px;word-spacing:0px;fill:#ffffff;fill-opacity:1;stroke:none;font-family:Valken;-inkscape-font-specification:Valken"
       x="1126.8575"
       y="694.95477"
       id="text3385"
       sodipodi:linespacing="125%"
       inkscape:export-filename="E:\matts\Documents\GitHubNew\goodcandyinc.github.io\assets\img\portfolio\flashbang.png"
       inkscape:export-xdpi="90.267059"
       inkscape:export-ydpi="90.267059"><tspan
         sodipodi:role="line"
         id="tspan3387"
         x="1126.8575"
         y="694.95477"
         style="font-style:normal;font-variant:normal;font-weight:normal;font-stretch:normal;font-family:Segoe Script;-inkscape-font-specification:Segoe Script;fill:#ffffff">=</tspan></text>
    <rect
       style="fill:none;stroke:none"
       id="rect3389"
       width="182.85715"
       height="28.571428"
       x="-1151.4286"
       y="112.36218"
       rx="12.625322"
       ry="15.201919"
       inkscape:export-filename="E:\matts\Documents\GitHubNew\goodcandyinc.github.io\assets\img\portfolio\flashbang.png"
       inkscape:export-xdpi="90.267059"
       inkscape:export-ydpi="90.267059" />
  </g>
</svg>
